<svg width="1920" height="1080" viewBox="0 0 1920 1080" fill="none" xmlns="http://www.w3.org/2000/svg">
<rect width="1920" height="1080" fill="white"/>
<path fill-rule="evenodd" clip-rule="evenodd" d="M141.26 41C141.26 51.9772 132.361 60.8757 121.384 60.8759L70.2715 60.8759L70.2715 60.9091C66.5471 60.9092 62.8588 61.6431 59.418 63.0683C55.9772 64.4936 52.8503 66.5824 50.2168 69.2158C47.5833 71.8493 45.4937 74.9761 44.0684 78.417C42.6431 81.8578 41.9092 85.5461 41.9092 89.2705C41.9092 92.9949 42.6431 96.684 44.0684 100.125C45.4936 103.566 47.5833 106.693 50.2168 109.326C52.8503 111.96 55.9772 114.048 59.418 115.474C62.8588 116.899 66.5471 117.633 70.2715 117.633L70.2715 137.542C63.9326 137.542 57.6552 136.293 51.7988 133.867C45.9424 131.441 40.621 127.886 36.1387 123.403C31.6564 118.921 28.1006 113.599 25.6748 107.743C23.249 101.887 22 95.6094 22 89.2705C22.0001 82.9317 23.2491 76.655 25.6748 70.7988C28.1006 64.9424 31.6564 59.6209 36.1387 55.1386C40.621 50.6564 45.9424 47.1006 51.7988 44.6748C56.7796 42.6117 62.0651 41.4031 67.4336 41.0869L67.4336 41L141.26 41ZM141.26 246C141.26 256.977 132.361 265.876 121.384 265.876L70.2715 265.876L70.2715 265.909C66.547 265.909 62.8589 266.643 59.418 268.068C55.9772 269.494 52.8503 271.582 50.2168 274.216C47.5833 276.849 45.4936 279.976 44.0683 283.417C42.6431 286.858 41.9092 290.546 41.9092 294.27C41.9092 297.995 42.6431 301.684 44.0683 305.125C45.4936 308.566 47.5833 311.693 50.2168 314.326C52.8503 316.96 55.9772 319.048 59.418 320.474C62.8589 321.899 66.547 322.633 70.2715 322.633L70.2715 342.542C63.9325 342.542 57.6553 341.293 51.7988 338.867C45.9424 336.441 40.621 332.886 36.1387 328.403C31.6564 323.921 28.1006 318.6 25.6748 312.743C23.249 306.887 22 300.609 22 294.27C22.0001 287.932 23.2491 281.655 25.6748 275.799C28.1006 269.942 31.6564 264.621 36.1387 260.139C40.621 255.656 45.9424 252.101 51.7988 249.675C56.7797 247.612 62.065 246.403 67.4336 246.087L67.4336 246L141.26 246ZM141.26 451.123C141.26 462.1 132.361 471 121.384 471L70.2715 471L70.2715 471.032C66.5471 471.032 62.8588 471.766 59.4179 473.191C55.977 474.617 52.8503 476.706 50.2168 479.34C47.5832 481.973 45.4936 485.1 44.0683 488.541C42.6432 491.982 41.9092 495.67 41.9092 499.394C41.9092 503.119 42.643 506.807 44.0683 510.248C45.4936 513.689 47.5832 516.816 50.2168 519.449C52.8504 522.083 55.977 524.172 59.4179 525.598C62.8588 527.023 66.5472 527.756 70.2715 527.756L70.2715 547.665C63.9325 547.665 57.6552 546.417 51.7988 543.991C45.9424 541.565 40.6209 538.01 36.1387 533.527C31.6564 529.045 28.1006 523.723 25.6748 517.867C23.249 512.011 22 505.733 22 499.394C22 493.056 23.249 486.778 25.6748 480.922C28.1006 475.065 31.6564 469.744 36.1387 465.262C40.621 460.779 45.9424 457.224 51.7988 454.798C56.7793 452.735 62.0644 451.526 67.4326 451.21L67.4326 451.123L141.26 451.123ZM141.26 656.245C141.259 667.222 132.361 676.121 121.384 676.121L70.2715 676.121L70.2715 676.154C66.5472 676.154 62.8588 676.887 59.4179 678.312C55.9771 679.738 52.8503 681.827 50.2168 684.461C47.5833 687.094 45.4936 690.221 44.0683 693.662C42.6432 697.103 41.9092 700.791 41.9092 704.516C41.9092 708.24 42.6432 711.928 44.0683 715.369C45.4936 718.81 47.5832 721.937 50.2168 724.57C52.8504 727.204 55.977 729.293 59.4179 730.719C62.8589 732.144 66.5471 732.878 70.2715 732.878L70.2715 752.787C63.9325 752.787 57.6552 751.538 51.7988 749.112C45.9424 746.686 40.621 743.131 36.1386 738.648C31.6563 734.166 28.1006 728.845 25.6748 722.988C23.249 717.132 22 710.854 22 704.516C22 698.177 23.2491 691.899 25.6748 686.043C28.1006 680.187 31.6565 674.865 36.1386 670.383C40.6209 665.901 45.9425 662.345 51.7988 659.919C56.7793 657.856 62.0644 656.648 67.4326 656.332L67.4326 656.245L141.26 656.245ZM141.26 861.367C141.26 872.344 132.361 881.244 121.384 881.244L70.2714 881.244L70.2714 881.276C66.547 881.276 62.8588 882.01 59.4179 883.436C55.9771 884.861 52.8503 886.95 50.2168 889.583C47.5833 892.216 45.4936 895.343 44.0683 898.784C42.643 902.225 41.9092 905.914 41.9091 909.639C41.9092 913.363 42.6432 917.051 44.0683 920.492C45.4936 923.933 47.5833 927.06 50.2168 929.693C52.8502 932.327 55.9771 934.416 59.4179 935.841C62.8588 937.266 66.547 938 70.2714 938L70.2714 957.909C63.9325 957.909 57.6552 956.66 51.7988 954.234C45.9426 951.809 40.6209 948.254 36.1386 943.771C31.6563 939.289 28.1005 933.967 25.6748 928.11C23.2491 922.254 22 915.977 22 909.639C22 903.3 23.249 897.022 25.6748 891.166C28.1006 885.31 31.6563 879.988 36.1386 875.506C40.621 871.024 45.9423 867.468 51.7988 865.042C56.7796 862.979 62.065 861.77 67.4336 861.454L67.4336 861.367L141.26 861.367ZM141.263 170.357C141.263 176.696 140.014 182.973 137.588 188.829C135.162 194.686 131.606 200.008 127.124 204.49C122.642 208.972 117.32 212.528 111.464 214.954C106.483 217.017 101.198 218.225 95.8291 218.541L95.8291 218.628L22.0029 218.628C22.003 207.651 30.9017 198.752 41.8789 198.752L92.9912 198.752L92.9912 198.719C96.7158 198.719 100.404 197.985 103.845 196.56C107.286 195.134 110.412 193.046 113.046 190.412C115.679 187.779 117.769 184.652 119.194 181.211C120.62 177.77 121.353 174.082 121.354 170.357C121.354 166.633 120.62 162.945 119.194 159.504C117.769 156.063 115.68 152.935 113.046 150.302C110.412 147.668 107.286 145.58 103.845 144.154C100.404 142.729 96.7158 141.995 92.9912 141.995L92.9912 122.086C99.3303 122.086 105.607 123.335 111.464 125.761C117.32 128.187 122.642 131.742 127.124 136.225C131.606 140.707 135.162 146.028 137.588 151.885C140.014 157.741 141.263 164.018 141.263 170.357ZM141.263 375.357C141.263 381.696 140.014 387.973 137.588 393.829C135.162 399.686 131.606 405.008 127.124 409.49C122.642 413.972 117.32 417.528 111.464 419.954C106.483 422.017 101.198 423.225 95.8291 423.541L95.8291 423.628L22.0029 423.628C22.003 412.651 30.9017 403.752 41.8789 403.752L92.9912 403.752L92.9912 403.719C96.7157 403.719 100.404 402.985 103.845 401.56C107.286 400.134 110.412 398.046 113.046 395.412C115.679 392.779 117.769 389.652 119.194 386.211C120.62 382.77 121.353 379.082 121.354 375.357C121.354 371.633 120.619 367.945 119.194 364.504C117.769 361.063 115.679 357.935 113.046 355.302C110.412 352.668 107.286 350.58 103.845 349.154C100.404 347.729 96.7157 346.995 92.9912 346.995L92.9912 327.086C99.3302 327.086 105.607 328.335 111.464 330.761C117.32 333.187 122.642 336.742 127.124 341.225C131.606 345.707 135.162 351.028 137.588 356.885C140.014 362.741 141.263 369.018 141.263 375.357ZM141.263 580.49C141.263 586.829 140.014 593.106 137.588 598.962C135.162 604.818 131.606 610.14 127.124 614.622C122.642 619.104 117.32 622.66 111.464 625.086C106.483 627.149 101.198 628.358 95.8291 628.674L95.8291 628.761L22.0029 628.761C22.0029 617.783 30.9016 608.885 41.8789 608.885L92.9912 608.885L92.9912 608.852C96.7157 608.852 100.404 608.118 103.845 606.692C107.286 605.267 110.412 603.178 113.046 600.545C115.679 597.911 117.769 594.785 119.194 591.344C120.62 587.903 121.353 584.214 121.353 580.49C121.353 576.766 120.62 573.077 119.194 569.636C117.769 566.195 115.679 563.068 113.046 560.435C110.412 557.801 107.285 555.712 103.845 554.287C100.404 552.862 96.7157 552.128 92.9912 552.128L92.9912 532.219C99.3302 532.219 105.607 533.468 111.464 535.894C117.32 538.319 122.642 541.875 127.124 546.357C131.606 550.84 135.162 556.161 137.588 562.018C140.014 567.874 141.263 574.151 141.263 580.49ZM141.263 785.601C141.263 791.939 140.014 798.217 137.588 804.073C135.162 809.93 131.606 815.251 127.124 819.733C122.642 824.216 117.32 827.771 111.464 830.197C106.483 832.26 101.198 833.469 95.8291 833.785L95.8291 833.872L22.0029 833.872C22.0031 822.895 30.9018 813.996 41.8789 813.996L92.9912 813.996L92.9912 813.963C96.7157 813.963 100.404 813.229 103.845 811.804C107.285 810.378 110.412 808.29 113.046 805.656C115.679 803.023 117.769 799.895 119.194 796.454C120.619 793.013 121.353 789.325 121.353 785.601C121.353 781.876 120.62 778.188 119.194 774.747C117.769 771.306 115.679 768.179 113.046 765.546C110.412 762.912 107.286 760.824 103.845 759.398C100.404 757.973 96.7157 757.239 92.9912 757.239L92.9912 737.33C99.3302 737.33 105.607 738.579 111.464 741.005C117.32 743.431 122.642 746.986 127.124 751.468C131.606 755.95 135.162 761.272 137.588 767.129C140.014 772.985 141.263 779.262 141.263 785.601ZM141.263 990.733C141.263 997.072 140.014 1003.35 137.588 1009.21C135.162 1015.06 131.606 1020.38 127.124 1024.87C122.642 1029.35 117.32 1032.9 111.464 1035.33C106.483 1037.39 101.198 1038.6 95.8291 1038.92L95.8291 1039L22.0029 1039C22.0029 1028.03 30.9017 1019.13 41.8789 1019.13L92.9912 1019.13L92.9912 1019.1C96.7157 1019.1 100.404 1018.36 103.845 1016.94C107.286 1015.51 110.412 1013.42 113.046 1010.79C115.679 1008.15 117.769 1005.03 119.194 1001.59C120.619 998.146 121.353 994.458 121.353 990.733C121.353 987.009 120.62 983.321 119.194 979.88C117.769 976.439 115.679 973.312 113.046 970.679C110.412 968.045 107.286 965.956 103.845 964.53C100.404 963.105 96.7156 962.372 92.9912 962.372L92.9912 942.463C99.3302 942.463 105.607 943.711 111.464 946.137C117.32 948.562 122.642 952.118 127.124 956.601C131.606 961.083 135.162 966.404 137.588 972.261C140.014 978.117 141.263 984.394 141.263 990.733ZM284.368 41C284.368 51.9772 275.469 60.8757 264.492 60.876L213.38 60.8759L213.38 60.9092C209.656 60.9092 205.967 61.6431 202.526 63.0683C199.086 64.4936 195.959 66.5824 193.325 69.2158C190.692 71.8493 188.602 74.9761 187.177 78.417C185.752 81.8578 185.018 85.5462 185.018 89.2705C185.018 92.995 185.751 96.684 187.177 100.125C188.602 103.566 190.692 106.693 193.325 109.326C195.959 111.96 199.086 114.048 202.526 115.474C205.967 116.899 209.656 117.633 213.38 117.633L213.38 137.542C207.041 137.542 200.764 136.293 194.907 133.867C189.051 131.441 183.729 127.886 179.247 123.403C174.765 118.921 171.209 113.6 168.783 107.743C166.357 101.887 165.108 95.6094 165.108 89.2705C165.108 82.9317 166.357 76.655 168.783 70.7988C171.209 64.9424 174.765 59.621 179.247 55.1386C183.729 50.6564 189.051 47.1006 194.907 44.6748C199.888 42.6117 205.173 41.4031 210.542 41.0869L210.542 41L284.368 41ZM284.369 246C284.369 256.977 275.47 265.876 264.493 265.876L213.381 265.876L213.381 265.909C209.656 265.909 205.968 266.643 202.527 268.068C199.087 269.494 195.96 271.582 193.326 274.216C190.693 276.849 188.603 279.976 187.178 283.417C185.752 286.858 185.019 290.546 185.019 294.27C185.019 297.995 185.752 301.684 187.178 305.125C188.603 308.566 190.693 311.693 193.326 314.326C195.96 316.96 199.087 319.048 202.527 320.474C205.968 321.899 209.656 322.633 213.381 322.633L213.381 342.542C207.042 342.542 200.765 341.293 194.908 338.867C189.052 336.441 183.73 332.886 179.248 328.403C174.766 323.921 171.21 318.6 168.784 312.743C166.358 306.887 165.109 300.609 165.109 294.27C165.109 287.932 166.358 281.655 168.784 275.799C171.21 269.942 174.766 264.621 179.248 260.139C183.73 255.656 189.052 252.101 194.908 249.675C199.889 247.612 205.174 246.403 210.543 246.087L210.543 246L284.369 246ZM284.369 451.123C284.369 462.1 275.47 471 264.493 471L213.381 471L213.381 471.032C209.656 471.032 205.968 471.766 202.527 473.191C199.086 474.617 195.96 476.706 193.326 479.34C190.692 481.973 188.603 485.1 187.178 488.541C185.752 491.982 185.019 495.67 185.019 499.395C185.019 503.119 185.752 506.807 187.178 510.248C188.603 513.689 190.693 516.816 193.326 519.449C195.96 522.083 199.086 524.172 202.527 525.598C205.968 527.023 209.657 527.756 213.381 527.756L213.381 547.665C207.042 547.665 200.765 546.417 194.908 543.991C189.052 541.565 183.73 538.009 179.248 533.527C174.766 529.045 171.21 523.723 168.784 517.867C166.358 512.011 165.109 505.733 165.109 499.395C165.109 493.056 166.358 486.778 168.784 480.922C171.21 475.065 174.766 469.744 179.248 465.262C183.73 460.779 189.052 457.224 194.908 454.798C199.889 452.735 205.174 451.526 210.543 451.21L210.543 451.123L284.369 451.123ZM284.369 656.245C284.369 667.222 275.47 676.121 264.493 676.121L213.381 676.121L213.381 676.154C209.656 676.154 205.968 676.887 202.527 678.312C199.086 679.738 195.96 681.827 193.326 684.461C190.693 687.095 188.603 690.221 187.178 693.662C185.752 697.103 185.019 700.791 185.019 704.516C185.019 708.24 185.753 711.928 187.178 715.369C188.603 718.81 190.693 721.937 193.326 724.57C195.96 727.204 199.086 729.293 202.527 730.719C205.968 732.144 209.657 732.878 213.381 732.878L213.381 752.787C207.042 752.787 200.765 751.538 194.908 749.112C189.052 746.686 183.73 743.131 179.248 738.648C174.766 734.166 171.21 728.845 168.784 722.988C166.358 717.132 165.109 710.854 165.109 704.516C165.109 698.177 166.358 691.899 168.784 686.043C171.21 680.187 174.766 674.865 179.248 670.383C183.73 665.901 189.052 662.345 194.908 659.919C199.889 657.856 205.174 656.648 210.543 656.332L210.543 656.245L284.369 656.245ZM284.369 861.367C284.369 872.344 275.47 881.244 264.493 881.244L213.381 881.244L213.381 881.276C209.656 881.276 205.968 882.01 202.527 883.436C199.087 884.861 195.96 886.95 193.326 889.583C190.693 892.216 188.603 895.343 187.178 898.784C185.752 902.225 185.019 905.914 185.019 909.639C185.019 913.363 185.752 917.051 187.178 920.492C188.603 923.933 190.693 927.06 193.326 929.693C195.96 932.327 199.086 934.416 202.527 935.841C205.968 937.266 209.656 938 213.381 938L213.381 957.909C207.042 957.909 200.765 956.66 194.908 954.234C189.052 951.809 183.73 948.254 179.248 943.771C174.766 939.289 171.21 933.967 168.784 928.11C166.358 922.254 165.109 915.977 165.109 909.639C165.109 903.3 166.358 897.022 168.784 891.166C171.21 885.31 174.766 879.988 179.248 875.506C183.73 871.024 189.052 867.468 194.908 865.042C199.889 862.979 205.174 861.77 210.543 861.454L210.543 861.367L284.369 861.367ZM284.371 170.366C284.371 176.705 283.122 182.982 280.696 188.839C278.27 194.695 274.715 200.017 270.232 204.499C265.75 208.981 260.429 212.537 254.572 214.963C249.591 217.026 244.306 218.235 238.937 218.551L238.937 218.638L165.111 218.638C165.111 207.66 174.01 198.761 184.987 198.761L236.1 198.761L236.1 198.728C239.824 198.728 243.512 197.995 246.953 196.569C250.394 195.144 253.521 193.054 256.154 190.421C258.788 187.787 260.877 184.661 262.303 181.22C263.728 177.779 264.462 174.091 264.462 170.366C264.462 166.642 263.728 162.954 262.303 159.513C260.877 156.072 258.788 152.945 256.154 150.311C253.521 147.678 250.394 145.588 246.953 144.163C243.512 142.738 239.824 142.005 236.1 142.005L236.1 122.096C242.439 122.096 248.716 123.344 254.572 125.77C260.429 128.195 265.75 131.751 270.232 136.233C274.715 140.716 278.27 146.037 280.696 151.894C283.122 157.75 284.371 164.027 284.371 170.366ZM284.371 375.366C284.371 381.705 283.122 387.982 280.696 393.839C278.27 399.695 274.715 405.017 270.232 409.499C265.75 413.981 260.429 417.537 254.572 419.963C249.591 422.026 244.306 423.235 238.937 423.551L238.937 423.638L165.111 423.638C165.111 412.66 174.01 403.761 184.987 403.761L236.1 403.761L236.1 403.728C239.824 403.728 243.512 402.995 246.953 401.569C250.394 400.144 253.521 398.054 256.154 395.421C258.788 392.787 260.877 389.661 262.303 386.22C263.728 382.779 264.462 379.091 264.462 375.366C264.462 371.642 263.728 367.954 262.303 364.513C260.877 361.072 258.788 357.945 256.154 355.311C253.521 352.678 250.394 350.588 246.953 349.163C243.512 347.738 239.824 347.005 236.1 347.005L236.1 327.096C242.439 327.096 248.716 328.344 254.572 330.77C260.429 333.195 265.75 336.751 270.232 341.233C274.715 345.716 278.27 351.037 280.696 356.894C283.122 362.75 284.371 369.027 284.371 375.366ZM284.371 580.48C284.371 586.819 283.122 593.097 280.696 598.953C278.27 604.809 274.715 610.131 270.232 614.613C265.75 619.095 260.429 622.651 254.572 625.077C249.591 627.14 244.306 628.349 238.937 628.665L238.937 628.751L165.111 628.751C165.112 617.774 174.01 608.875 184.987 608.875L236.1 608.875L236.1 608.843C239.824 608.843 243.512 608.109 246.953 606.684C250.394 605.258 253.521 603.169 256.154 600.535C258.788 597.902 260.877 594.775 262.303 591.334C263.728 587.893 264.462 584.205 264.462 580.48C264.462 576.756 263.728 573.068 262.303 569.627C260.877 566.186 258.788 563.059 256.154 560.426C253.521 557.792 250.394 555.703 246.953 554.277C243.512 552.852 239.824 552.118 236.1 552.118L236.1 532.21C242.439 532.21 248.716 533.458 254.572 535.884C260.429 538.31 265.75 541.865 270.232 546.348C274.715 550.83 278.27 556.151 280.696 562.008C283.122 567.864 284.371 574.142 284.371 580.48ZM284.371 785.61C284.371 791.949 283.122 798.227 280.696 804.083C278.27 809.939 274.715 815.261 270.232 819.743C265.75 824.225 260.429 827.781 254.572 830.207C249.591 832.27 244.306 833.479 238.937 833.795L238.937 833.881L165.111 833.881C165.112 822.904 174.01 814.005 184.987 814.005L236.1 814.005L236.1 813.972C239.824 813.972 243.512 813.239 246.953 811.813C250.394 810.388 253.521 808.299 256.154 805.665C258.788 803.031 260.877 799.905 262.303 796.464C263.728 793.023 264.462 789.335 264.462 785.61C264.462 781.886 263.728 778.198 262.303 774.757C260.877 771.316 258.788 768.189 256.154 765.556C253.521 762.922 250.394 760.832 246.953 759.407C243.512 757.982 239.824 757.248 236.1 757.248L236.1 737.339C242.439 737.339 248.716 738.588 254.572 741.014C260.429 743.439 265.75 746.995 270.232 751.478C274.715 755.96 278.27 761.281 280.696 767.138C283.122 772.994 284.371 779.271 284.371 785.61ZM284.371 990.725C284.371 997.064 283.122 1003.34 280.696 1009.2C278.27 1015.05 274.715 1020.38 270.232 1024.86C265.75 1029.34 260.429 1032.9 254.572 1035.32C249.591 1037.38 244.306 1038.59 238.937 1038.91L238.937 1039L165.111 1039C165.111 1028.02 174.01 1019.12 184.987 1019.12L236.1 1019.12L236.1 1019.09C239.824 1019.09 243.512 1018.35 246.953 1016.93C250.394 1015.5 253.521 1013.41 256.154 1010.78C258.788 1008.15 260.877 1005.02 262.303 1001.58C263.728 998.137 264.462 994.449 264.462 990.725C264.462 987 263.728 983.312 262.303 979.871C260.877 976.43 258.788 973.304 256.154 970.67C253.521 968.036 250.394 965.947 246.953 964.521C243.512 963.096 239.824 962.362 236.1 962.362L236.1 942.453C242.439 942.453 248.716 943.702 254.572 946.128C260.429 948.554 265.75 952.109 270.232 956.592C274.715 961.074 278.27 966.395 280.696 972.252C283.122 978.108 284.371 984.386 284.371 990.725ZM427.478 41C427.478 51.9772 418.579 60.8757 407.602 60.876L356.489 60.876L356.489 60.9092C352.765 60.9092 349.077 61.6431 345.636 63.0683C342.195 64.4936 339.068 66.5824 336.435 69.2158C333.801 71.8493 331.711 74.9762 330.286 78.417C328.861 81.8578 328.127 85.5462 328.127 89.2705C328.127 92.995 328.861 96.684 330.286 100.125C331.711 103.566 333.801 106.693 336.435 109.326C339.068 111.96 342.195 114.048 345.636 115.474C349.077 116.899 352.765 117.633 356.489 117.633L356.489 137.542C350.15 137.542 343.873 136.293 338.017 133.867C332.16 131.441 326.839 127.886 322.356 123.403C317.874 118.921 314.318 113.6 311.893 107.743C309.467 101.887 308.218 95.6094 308.218 89.2705C308.218 82.9317 309.467 76.6551 311.893 70.7988C314.318 64.9424 317.874 59.621 322.356 55.1386C326.839 50.6564 332.16 47.1006 338.017 44.6748C342.997 42.6118 348.282 41.4032 353.65 41.0869L353.65 41L427.478 41ZM427.478 246C427.478 256.977 418.579 265.876 407.602 265.876L356.489 265.876L356.489 265.909C352.765 265.909 349.077 266.643 345.636 268.068C342.195 269.494 339.068 271.582 336.435 274.216C333.801 276.849 331.711 279.976 330.286 283.417C328.861 286.858 328.127 290.546 328.127 294.27C328.127 297.995 328.861 301.684 330.286 305.125C331.711 308.566 333.801 311.693 336.435 314.326C339.068 316.96 342.195 319.048 345.636 320.474C349.077 321.899 352.765 322.633 356.489 322.633L356.489 342.542C350.15 342.542 343.873 341.293 338.017 338.867C332.16 336.441 326.839 332.886 322.356 328.403C317.874 323.921 314.318 318.6 311.893 312.743C309.467 306.887 308.218 300.609 308.218 294.27C308.218 287.932 309.467 281.655 311.893 275.799C314.318 269.942 317.874 264.621 322.356 260.139C326.839 255.656 332.16 252.101 338.017 249.675C342.997 247.612 348.282 246.403 353.65 246.087L353.65 246L427.478 246ZM427.478 451.123C427.477 462.1 418.579 471 407.602 471L356.489 471L356.489 471.032C352.765 471.032 349.077 471.766 345.636 473.191C342.195 474.617 339.068 476.706 336.435 479.34C333.801 481.973 331.711 485.1 330.286 488.541C328.861 491.982 328.127 495.67 328.127 499.395C328.127 503.119 328.861 506.807 330.286 510.248C331.711 513.689 333.801 516.816 336.435 519.449C339.068 522.083 342.195 524.172 345.636 525.598C349.077 527.023 352.765 527.756 356.489 527.756L356.489 547.665C350.15 547.665 343.873 546.417 338.017 543.991C332.16 541.565 326.839 538.01 322.356 533.527C317.874 529.045 314.318 523.723 311.893 517.867C309.467 512.011 308.218 505.733 308.218 499.395C308.218 493.056 309.467 486.778 311.893 480.922C314.318 475.065 317.874 469.744 322.356 465.262C326.839 460.779 332.16 457.224 338.017 454.798C342.997 452.735 348.283 451.526 353.651 451.21L353.651 451.123L427.478 451.123ZM427.478 656.245C427.477 667.222 418.579 676.121 407.602 676.121L356.489 676.121L356.489 676.154C352.765 676.154 349.077 676.887 345.636 678.312C342.195 679.738 339.068 681.827 336.435 684.461C333.801 687.095 331.711 690.221 330.286 693.662C328.861 697.103 328.127 700.791 328.127 704.516C328.127 708.24 328.861 711.928 330.286 715.369C331.711 718.81 333.801 721.937 336.435 724.57C339.068 727.204 342.195 729.293 345.636 730.719C349.077 732.144 352.765 732.878 356.489 732.878L356.489 752.787C350.15 752.787 343.873 751.538 338.017 749.112C332.16 746.687 326.839 743.131 322.356 738.648C317.874 734.166 314.318 728.845 311.893 722.988C309.467 717.132 308.218 710.854 308.218 704.516C308.218 698.177 309.467 691.899 311.893 686.043C314.318 680.187 317.874 674.865 322.356 670.383C326.839 665.901 332.16 662.345 338.017 659.919C342.997 657.856 348.283 656.648 353.651 656.332L353.651 656.245L427.478 656.245ZM427.478 861.367C427.478 872.344 418.579 881.244 407.602 881.244L356.489 881.244L356.489 881.276C352.765 881.276 349.077 882.01 345.636 883.436C342.195 884.861 339.068 886.95 336.435 889.583C333.801 892.216 331.711 895.343 330.286 898.784C328.861 902.225 328.127 905.914 328.127 909.639C328.127 913.363 328.861 917.051 330.286 920.492C331.711 923.933 333.801 927.06 336.435 929.693C339.068 932.327 342.195 934.416 345.636 935.841C349.077 937.266 352.765 938 356.489 938L356.489 957.909C350.15 957.909 343.873 956.66 338.017 954.234C332.16 951.809 326.839 948.254 322.356 943.771C317.874 939.289 314.318 933.967 311.893 928.11C309.467 922.254 308.218 915.977 308.218 909.639C308.218 903.3 309.467 897.022 311.893 891.166C314.318 885.31 317.874 879.988 322.356 875.506C326.839 871.024 332.16 867.468 338.017 865.042C342.997 862.979 348.283 861.77 353.651 861.454L353.651 861.367L427.478 861.367ZM427.48 170.357C427.48 176.696 426.231 182.973 423.806 188.829C421.38 194.686 417.824 200.008 413.342 204.49C408.859 208.972 403.538 212.528 397.682 214.954C392.701 217.017 387.415 218.225 382.047 218.541L382.047 218.628L308.221 218.628C308.221 207.651 317.119 198.752 328.097 198.752L379.209 198.752L379.209 198.719C382.933 198.719 386.621 197.985 390.062 196.56C393.503 195.134 396.63 193.046 399.264 190.412C401.897 187.779 403.987 184.652 405.412 181.211C406.837 177.77 407.571 174.082 407.571 170.357C407.571 166.633 406.837 162.945 405.412 159.504C403.987 156.063 401.897 152.935 399.264 150.302C396.63 147.668 393.503 145.58 390.062 144.154C386.621 142.729 382.933 141.995 379.209 141.995L379.209 122.086C385.548 122.086 391.825 123.335 397.682 125.761C403.538 128.187 408.859 131.742 413.342 136.225C417.824 140.707 421.38 146.028 423.806 151.885C426.231 157.741 427.48 164.018 427.48 170.357ZM427.48 375.357C427.48 381.696 426.231 387.973 423.806 393.829C421.38 399.685 417.824 405.008 413.342 409.49C408.86 413.972 403.538 417.528 397.682 419.954C392.701 422.017 387.415 423.225 382.047 423.541L382.047 423.628L308.221 423.628C308.221 412.651 317.119 403.752 328.097 403.752L379.209 403.752L379.209 403.719C382.933 403.719 386.622 402.985 390.062 401.56C393.503 400.134 396.63 398.046 399.264 395.412C401.897 392.779 403.987 389.652 405.412 386.211C406.837 382.77 407.571 379.082 407.571 375.357C407.571 371.633 406.837 367.945 405.412 364.504C403.987 361.063 401.897 357.935 399.264 355.302C396.63 352.668 393.503 350.58 390.062 349.154C386.622 347.729 382.933 346.995 379.209 346.995L379.209 327.086C385.548 327.086 391.825 328.335 397.682 330.761C403.538 333.187 408.86 336.742 413.342 341.225C417.824 345.707 421.38 351.028 423.806 356.885C426.231 362.741 427.48 369.019 427.48 375.357ZM427.48 580.49C427.48 586.829 426.231 593.106 423.806 598.962C421.38 604.818 417.824 610.14 413.342 614.622C408.859 619.104 403.538 622.66 397.682 625.086C392.701 627.149 387.415 628.358 382.047 628.674L382.047 628.761L308.221 628.761C308.221 617.783 317.119 608.885 328.097 608.885L379.209 608.885L379.209 608.852C382.933 608.851 386.622 608.118 390.062 606.692C393.503 605.267 396.63 603.178 399.264 600.545C401.897 597.911 403.987 594.785 405.412 591.344C406.837 587.903 407.571 584.214 407.571 580.49C407.571 576.766 406.837 573.077 405.412 569.636C403.987 566.195 401.897 563.068 399.264 560.435C396.63 557.801 393.503 555.712 390.062 554.287C386.622 552.862 382.933 552.128 379.209 552.128L379.209 532.219C385.548 532.219 391.825 533.468 397.682 535.894C403.538 538.319 408.86 541.875 413.342 546.357C417.824 550.84 421.38 556.161 423.806 562.018C426.231 567.874 427.48 574.151 427.48 580.49ZM427.48 785.601C427.48 791.939 426.231 798.217 423.806 804.073C421.38 809.93 417.824 815.251 413.342 819.733C408.86 824.216 403.538 827.771 397.682 830.197C392.701 832.26 387.415 833.469 382.047 833.785L382.047 833.872L308.221 833.872C308.221 822.895 317.12 813.996 328.097 813.996L379.209 813.996L379.209 813.963C382.933 813.963 386.622 813.229 390.062 811.804C393.503 810.378 396.63 808.29 399.264 805.656C401.897 803.023 403.987 799.895 405.412 796.454C406.837 793.013 407.571 789.325 407.571 785.601C407.571 781.876 406.837 778.188 405.412 774.747C403.987 771.306 401.897 768.179 399.264 765.546C396.63 762.912 393.503 760.824 390.062 759.398C386.622 757.973 382.933 757.239 379.209 757.239L379.209 737.33C385.548 737.33 391.825 738.579 397.682 741.005C403.538 743.431 408.86 746.986 413.342 751.468C417.824 755.95 421.38 761.272 423.806 767.129C426.231 772.985 427.48 779.262 427.48 785.601ZM427.48 990.733C427.48 997.072 426.231 1003.35 423.806 1009.21C421.38 1015.06 417.824 1020.38 413.342 1024.87C408.859 1029.35 403.538 1032.9 397.682 1035.33C392.701 1037.39 387.415 1038.6 382.047 1038.92L382.047 1039L308.221 1039C308.221 1028.03 317.119 1019.13 328.097 1019.13L379.209 1019.13L379.209 1019.1C382.933 1019.1 386.622 1018.36 390.062 1016.94C393.503 1015.51 396.63 1013.42 399.264 1010.79C401.897 1008.15 403.987 1005.03 405.412 1001.59C406.837 998.146 407.571 994.458 407.571 990.733C407.571 987.009 406.837 983.321 405.412 979.88C403.987 976.439 401.897 973.312 399.264 970.679C396.63 968.045 393.503 965.956 390.062 964.53C386.622 963.105 382.933 962.372 379.209 962.372L379.209 942.463C385.548 942.463 391.825 943.711 397.682 946.137C403.538 948.562 408.86 952.118 413.342 956.601C417.824 961.083 421.38 966.404 423.806 972.261C426.231 978.117 427.48 984.395 427.48 990.733ZM570.586 41C570.586 51.9772 561.687 60.8757 550.71 60.876L499.598 60.876L499.598 60.9092C495.873 60.9092 492.185 61.6431 488.744 63.0683C485.303 64.4936 482.176 66.5824 479.543 69.2158C476.909 71.8493 474.82 74.9762 473.395 78.417C471.969 81.8578 471.235 85.5462 471.235 89.2705C471.235 92.995 471.969 96.684 473.395 100.125C474.82 103.566 476.909 106.693 479.543 109.326C482.176 111.96 485.303 114.048 488.744 115.474C492.185 116.899 495.873 117.633 499.598 117.633L499.598 137.542C493.259 137.542 486.981 136.293 481.125 133.867C475.269 131.441 469.947 127.886 465.465 123.403C460.983 118.921 457.427 113.6 455.001 107.743C452.575 101.887 451.326 95.6094 451.326 89.2705C451.326 82.9318 452.575 76.6551 455.001 70.7988C457.427 64.9425 460.983 59.621 465.465 55.1387C469.947 50.6564 475.269 47.1006 481.125 44.6748C486.105 42.6118 491.391 41.4032 496.759 41.0869L496.759 41L570.586 41ZM570.586 246C570.586 256.977 561.687 265.876 550.71 265.876L499.598 265.876L499.598 265.909C495.873 265.909 492.185 266.643 488.744 268.068C485.303 269.494 482.177 271.582 479.543 274.216C476.909 276.849 474.82 279.976 473.395 283.417C471.969 286.858 471.235 290.546 471.235 294.27C471.235 297.995 471.969 301.684 473.395 305.125C474.82 308.566 476.909 311.693 479.543 314.326C482.177 316.96 485.303 319.048 488.744 320.474C492.185 321.899 495.873 322.633 499.598 322.633L499.598 342.542C493.259 342.542 486.981 341.293 481.125 338.867C475.269 336.441 469.947 332.886 465.465 328.403C460.983 323.921 457.427 318.6 455.001 312.743C452.575 306.887 451.326 300.609 451.326 294.27C451.326 287.932 452.575 281.655 455.001 275.799C457.427 269.942 460.983 264.621 465.465 260.139C469.947 255.656 475.269 252.101 481.125 249.675C486.105 247.612 491.391 246.403 496.759 246.087L496.759 246L570.586 246ZM570.586 451.123C570.586 462.1 561.687 471 550.71 471L499.598 471L499.598 471.032C495.873 471.032 492.185 471.766 488.744 473.191C485.303 474.617 482.177 476.706 479.543 479.34C476.909 481.973 474.82 485.1 473.395 488.541C471.969 491.982 471.235 495.67 471.235 499.395C471.235 503.119 471.969 506.807 473.395 510.248C474.82 513.689 476.909 516.816 479.543 519.449C482.177 522.083 485.303 524.172 488.744 525.598C492.185 527.023 495.873 527.756 499.598 527.756L499.598 547.665C493.259 547.665 486.981 546.417 481.125 543.991C475.269 541.565 469.947 538.01 465.465 533.527C460.983 529.045 457.427 523.723 455.001 517.867C452.575 512.011 451.326 505.733 451.326 499.395C451.326 493.056 452.575 486.778 455.001 480.922C457.427 475.065 460.983 469.744 465.465 465.262C469.947 460.779 475.269 457.224 481.125 454.798C486.106 452.735 491.391 451.526 496.76 451.21L496.76 451.123L570.586 451.123ZM570.586 656.245C570.586 667.222 561.687 676.121 550.71 676.121L499.598 676.121L499.598 676.154C495.873 676.154 492.185 676.887 488.744 678.312C485.303 679.738 482.176 681.827 479.543 684.461C476.909 687.094 474.82 690.221 473.395 693.662C471.969 697.103 471.235 700.791 471.235 704.516C471.235 708.24 471.969 711.928 473.395 715.369C474.82 718.81 476.909 721.937 479.543 724.57C482.177 727.204 485.303 729.293 488.744 730.719C492.185 732.144 495.873 732.878 499.598 732.878L499.598 752.787C493.259 752.787 486.981 751.538 481.125 749.112C475.269 746.686 469.947 743.131 465.465 738.648C460.983 734.166 457.427 728.845 455.001 722.988C452.575 717.132 451.326 710.854 451.326 704.516C451.326 698.177 452.575 691.899 455.001 686.043C457.427 680.187 460.983 674.865 465.465 670.383C469.947 665.901 475.269 662.345 481.125 659.919C486.106 657.856 491.391 656.648 496.76 656.332L496.76 656.245L570.586 656.245ZM570.586 861.367C570.586 872.344 561.687 881.244 550.71 881.244L499.598 881.244L499.598 881.276C495.873 881.276 492.185 882.01 488.744 883.436C485.303 884.861 482.176 886.95 479.543 889.583C476.909 892.216 474.82 895.343 473.394 898.784C471.969 902.225 471.235 905.914 471.235 909.639C471.235 913.363 471.969 917.051 473.394 920.492C474.82 923.933 476.909 927.06 479.543 929.693C482.176 932.327 485.303 934.416 488.744 935.841C492.185 937.266 495.873 938 499.598 938L499.598 957.909C493.259 957.909 486.981 956.66 481.125 954.234C475.269 951.809 469.947 948.254 465.465 943.771C460.983 939.289 457.427 933.967 455.001 928.11C452.575 922.254 451.326 915.977 451.326 909.639C451.326 903.3 452.575 897.022 455.001 891.166C457.427 885.31 460.983 879.988 465.465 875.506C469.947 871.024 475.269 867.468 481.125 865.042C486.106 862.979 491.391 861.77 496.76 861.454L496.76 861.367L570.586 861.367ZM570.589 170.366C570.589 176.705 569.34 182.982 566.914 188.839C564.488 194.695 560.933 200.017 556.45 204.499C551.968 208.981 546.647 212.537 540.79 214.963C535.809 217.026 530.525 218.234 525.156 218.551L525.156 218.638L451.329 218.638C451.329 207.66 460.228 198.761 471.205 198.761L522.317 198.761L522.317 198.729C526.042 198.729 529.73 197.995 533.171 196.569C536.612 195.144 539.738 193.055 542.372 190.421C545.006 187.787 547.095 184.661 548.521 181.22C549.946 177.779 550.68 174.091 550.68 170.366C550.68 166.642 549.946 162.954 548.521 159.513C547.095 156.072 545.006 152.945 542.372 150.312C539.738 147.678 536.612 145.588 533.171 144.163C529.73 142.738 526.042 142.005 522.317 142.005L522.317 122.096C528.656 122.096 534.934 123.344 540.79 125.77C546.646 128.195 551.968 131.751 556.45 136.233C560.932 140.716 564.488 146.037 566.914 151.894C569.34 157.75 570.589 164.027 570.589 170.366ZM570.589 375.366C570.589 381.705 569.34 387.982 566.914 393.839C564.488 399.695 560.933 405.017 556.45 409.499C551.968 413.981 546.646 417.537 540.79 419.963C535.809 422.026 530.525 423.234 525.156 423.551L525.156 423.638L451.329 423.638C451.329 412.66 460.228 403.761 471.205 403.761L522.317 403.761L522.317 403.729C526.042 403.728 529.73 402.995 533.171 401.569C536.612 400.144 539.738 398.054 542.372 395.421C545.006 392.787 547.095 389.661 548.52 386.22C549.946 382.779 550.68 379.091 550.68 375.366C550.68 371.642 549.946 367.954 548.52 364.513C547.095 361.072 545.006 357.945 542.372 355.312C539.738 352.678 536.612 350.588 533.171 349.163C529.73 347.738 526.042 347.005 522.317 347.005L522.317 327.096C528.656 327.096 534.934 328.344 540.79 330.77C546.646 333.195 551.968 336.751 556.45 341.233C560.932 345.716 564.488 351.037 566.914 356.894C569.34 362.75 570.589 369.027 570.589 375.366ZM570.589 580.48C570.589 586.819 569.34 593.097 566.914 598.953C564.488 604.809 560.932 610.131 556.45 614.613C551.968 619.096 546.646 622.651 540.79 625.077C535.809 627.14 530.525 628.349 525.156 628.665L525.156 628.751L451.329 628.751C451.329 617.774 460.228 608.875 471.205 608.875L522.317 608.875L522.317 608.843C526.042 608.843 529.73 608.109 533.171 606.684C536.612 605.258 539.738 603.169 542.372 600.535C545.006 597.902 547.095 594.775 548.52 591.334C549.946 587.893 550.68 584.205 550.68 580.48C550.68 576.756 549.946 573.068 548.52 569.627C547.095 566.186 545.006 563.059 542.372 560.426C539.738 557.792 536.612 555.703 533.171 554.277C529.73 552.852 526.042 552.118 522.317 552.118L522.317 532.21C528.656 532.21 534.934 533.458 540.79 535.884C546.646 538.31 551.968 541.865 556.45 546.348C560.932 550.83 564.488 556.151 566.914 562.008C569.34 567.864 570.589 574.142 570.589 580.48ZM570.589 785.61C570.589 791.949 569.34 798.227 566.914 804.083C564.488 809.939 560.932 815.261 556.45 819.743C551.968 824.225 546.646 827.781 540.79 830.207C535.809 832.27 530.524 833.479 525.156 833.795L525.156 833.881L451.329 833.881C451.329 822.904 460.228 814.005 471.205 814.005L522.317 814.005L522.317 813.972C526.042 813.972 529.73 813.239 533.171 811.813C536.612 810.388 539.738 808.299 542.372 805.665C545.006 803.031 547.095 799.905 548.52 796.464C549.946 793.023 550.68 789.335 550.68 785.61C550.68 781.886 549.946 778.198 548.52 774.757C547.095 771.316 545.006 768.189 542.372 765.556C539.738 762.922 536.612 760.833 533.171 759.407C529.73 757.982 526.042 757.248 522.317 757.248L522.317 737.339C528.656 737.339 534.934 738.588 540.79 741.014C546.646 743.439 551.968 746.995 556.45 751.478C560.932 755.96 564.488 761.281 566.914 767.138C569.34 772.994 570.589 779.271 570.589 785.61ZM570.589 990.725C570.589 997.063 569.34 1003.34 566.914 1009.2C564.488 1015.05 560.932 1020.38 556.45 1024.86C551.968 1029.34 546.646 1032.9 540.79 1035.32C535.809 1037.38 530.524 1038.59 525.156 1038.91L525.156 1039L451.329 1039C451.329 1028.02 460.228 1019.12 471.205 1019.12L522.317 1019.12L522.317 1019.09C526.042 1019.09 529.73 1018.35 533.171 1016.93C536.612 1015.5 539.738 1013.41 542.372 1010.78C545.006 1008.15 547.095 1005.02 548.52 1001.58C549.946 998.137 550.68 994.449 550.68 990.725C550.68 987 549.946 983.312 548.52 979.871C547.095 976.43 545.006 973.304 542.372 970.67C539.738 968.036 536.612 965.947 533.171 964.521C529.73 963.096 526.042 962.362 522.317 962.362L522.317 942.453C528.656 942.453 534.934 943.702 540.79 946.128C546.646 948.554 551.968 952.109 556.45 956.592C560.933 961.074 564.488 966.395 566.914 972.252C569.34 978.108 570.589 984.386 570.589 990.725ZM713.694 41C713.694 51.9773 704.796 60.8759 693.818 60.876L642.706 60.876L642.706 60.9092C638.982 60.9092 635.293 61.6431 631.853 63.0683C628.412 64.4936 625.285 66.5824 622.651 69.2158C620.018 71.8493 617.928 74.9762 616.503 78.417C615.078 81.8578 614.344 85.5462 614.344 89.2705C614.344 92.995 615.078 96.684 616.503 100.125C617.928 103.566 620.018 106.693 622.651 109.326C625.285 111.96 628.412 114.048 631.853 115.474C635.293 116.899 638.982 117.633 642.706 117.633L642.706 137.542C636.367 137.542 630.09 136.293 624.233 133.867C618.377 131.441 613.056 127.886 608.573 123.403C604.091 118.921 600.535 113.6 598.109 107.743C595.684 101.887 594.435 95.6094 594.435 89.2705C594.435 82.9318 595.684 76.6551 598.109 70.7988C600.535 64.9425 604.091 59.621 608.573 55.1387C613.055 50.6564 618.377 47.1006 624.233 44.6748C629.214 42.6117 634.5 41.4031 639.868 41.0869L639.868 41L713.694 41ZM713.695 246C713.695 256.977 704.796 265.876 693.819 265.876L642.707 265.876L642.707 265.909C638.983 265.909 635.294 266.643 631.854 268.068C628.413 269.494 625.286 271.582 622.652 274.216C620.019 276.849 617.929 279.976 616.504 283.417C615.079 286.858 614.345 290.546 614.345 294.27C614.345 297.995 615.079 301.684 616.504 305.125C617.929 308.566 620.019 311.693 622.652 314.326C625.286 316.96 628.413 319.048 631.854 320.474C635.294 321.899 638.983 322.633 642.707 322.633L642.707 342.542C636.368 342.542 630.091 341.293 624.234 338.867C618.378 336.441 613.057 332.886 608.574 328.403C604.092 323.921 600.536 318.6 598.11 312.743C595.685 306.887 594.436 300.609 594.436 294.27C594.436 287.932 595.685 281.655 598.11 275.799C600.536 269.942 604.092 264.621 608.574 260.139C613.057 255.656 618.378 252.101 624.234 249.675C629.215 247.612 634.501 246.403 639.869 246.087L639.869 246L713.695 246ZM713.695 451.123C713.695 462.1 704.796 471 693.819 471L642.707 471L642.707 471.032C638.983 471.032 635.294 471.766 631.853 473.191C628.413 474.617 625.286 476.706 622.652 479.34C620.019 481.973 617.929 485.1 616.504 488.541C615.079 491.982 614.345 495.67 614.345 499.395C614.345 503.119 615.079 506.807 616.504 510.248C617.929 513.689 620.019 516.816 622.652 519.449C625.286 522.083 628.413 524.172 631.853 525.598C635.294 527.023 638.983 527.756 642.707 527.756L642.707 547.665C636.368 547.665 630.091 546.417 624.234 543.991C618.378 541.565 613.056 538.009 608.574 533.527C604.092 529.045 600.536 523.723 598.11 517.867C595.685 512.011 594.436 505.733 594.436 499.395C594.436 493.056 595.684 486.778 598.11 480.922C600.536 475.065 604.092 469.744 608.574 465.262C613.057 460.779 618.378 457.224 624.234 454.798C629.215 452.735 634.501 451.526 639.869 451.21L639.869 451.123L713.695 451.123ZM713.695 656.245C713.695 667.222 704.796 676.121 693.819 676.121L642.707 676.121L642.707 676.154C638.983 676.154 635.294 676.887 631.853 678.312C628.413 679.738 625.286 681.827 622.652 684.461C620.019 687.095 617.929 690.221 616.504 693.662C615.079 697.103 614.345 700.791 614.345 704.516C614.345 708.24 615.079 711.928 616.504 715.369C617.929 718.81 620.019 721.937 622.652 724.57C625.286 727.204 628.413 729.294 631.853 730.719C635.294 732.144 638.983 732.878 642.707 732.878L642.707 752.787C636.368 752.787 630.091 751.538 624.234 749.112C618.378 746.687 613.056 743.131 608.574 738.648C604.092 734.166 600.536 728.845 598.11 722.988C595.685 717.132 594.436 710.854 594.436 704.516C594.436 698.177 595.685 691.899 598.11 686.043C600.536 680.187 604.092 674.865 608.574 670.383C613.057 665.901 618.378 662.345 624.234 659.919C629.215 657.856 634.501 656.648 639.869 656.332L639.869 656.245L713.695 656.245ZM713.695 861.367C713.695 872.344 704.796 881.244 693.819 881.244L642.707 881.244L642.707 881.276C638.983 881.276 635.294 882.01 631.853 883.436C628.413 884.861 625.286 886.95 622.652 889.583C620.019 892.216 617.929 895.343 616.504 898.784C615.079 902.225 614.345 905.914 614.345 909.639C614.345 913.363 615.079 917.051 616.504 920.492C617.929 923.933 620.019 927.06 622.652 929.693C625.286 932.327 628.413 934.416 631.853 935.841C635.294 937.266 638.983 938 642.707 938L642.707 957.909C636.368 957.909 630.091 956.66 624.234 954.234C618.378 951.809 613.056 948.254 608.574 943.771C604.092 939.289 600.536 933.967 598.11 928.11C595.685 922.254 594.436 915.977 594.436 909.639C594.436 903.3 595.685 897.022 598.11 891.166C600.536 885.31 604.092 879.988 608.574 875.506C613.056 871.024 618.378 867.468 624.234 865.042C629.215 862.979 634.501 861.77 639.869 861.454L639.869 861.367L713.695 861.367ZM713.697 170.357C713.697 176.696 712.448 182.973 710.022 188.829C707.597 194.686 704.041 200.008 699.559 204.49C695.076 208.972 689.755 212.528 683.898 214.954C678.918 217.017 673.633 218.225 668.265 218.541L668.265 218.628L594.437 218.628C594.438 207.651 603.336 198.752 614.313 198.752L665.426 198.752L665.426 198.719C669.15 198.719 672.838 197.985 676.279 196.56C679.72 195.134 682.847 193.046 685.48 190.412C688.114 187.779 690.204 184.652 691.629 181.211C693.054 177.77 693.788 174.082 693.788 170.357C693.788 166.633 693.054 162.945 691.629 159.504C690.204 156.063 688.114 152.935 685.48 150.302C682.847 147.668 679.72 145.58 676.279 144.154C672.838 142.729 669.15 141.995 665.426 141.995L665.426 122.086C671.765 122.086 678.042 123.335 683.898 125.761C689.755 128.187 695.076 131.742 699.559 136.225C704.041 140.707 707.597 146.028 710.022 151.885C712.448 157.741 713.697 164.018 713.697 170.357ZM713.697 375.357C713.697 381.696 712.448 387.973 710.022 393.829C707.597 399.686 704.041 405.008 699.559 409.49C695.076 413.972 689.755 417.528 683.898 419.954C678.918 422.017 673.633 423.225 668.265 423.541L668.265 423.628L594.437 423.628C594.438 412.651 603.336 403.752 614.313 403.752L665.426 403.752L665.426 403.719C669.15 403.719 672.838 402.985 676.279 401.56C679.72 400.134 682.847 398.046 685.48 395.412C688.114 392.779 690.204 389.652 691.629 386.211C693.054 382.77 693.788 379.082 693.788 375.357C693.788 371.633 693.054 367.945 691.629 364.504C690.204 361.063 688.114 357.935 685.48 355.302C682.847 352.668 679.72 350.58 676.279 349.154C672.838 347.729 669.15 346.995 665.426 346.995L665.426 327.086C671.765 327.086 678.042 328.335 683.898 330.761C689.755 333.187 695.076 336.742 699.559 341.225C704.041 345.707 707.597 351.028 710.022 356.885C712.448 362.741 713.697 369.018 713.697 375.357ZM713.697 580.49C713.697 586.829 712.448 593.106 710.022 598.962C707.597 604.818 704.041 610.14 699.559 614.622C695.076 619.104 689.755 622.66 683.898 625.086C678.918 627.149 673.633 628.358 668.265 628.674L668.265 628.761L594.437 628.761C594.438 617.784 603.336 608.885 614.313 608.885L665.426 608.885L665.426 608.852C669.15 608.852 672.838 608.118 676.279 606.692C679.72 605.267 682.847 603.178 685.48 600.545C688.114 597.911 690.204 594.784 691.629 591.344C693.054 587.903 693.788 584.214 693.788 580.49C693.788 576.766 693.054 573.077 691.629 569.636C690.204 566.195 688.114 563.068 685.48 560.435C682.847 557.801 679.72 555.712 676.279 554.287C672.838 552.862 669.15 552.128 665.426 552.128L665.426 532.219C671.765 532.219 678.042 533.468 683.898 535.894C689.755 538.319 695.076 541.875 699.559 546.357C704.041 550.84 707.597 556.161 710.022 562.018C712.448 567.874 713.697 574.151 713.697 580.49ZM713.697 785.601C713.697 791.939 712.448 798.217 710.022 804.073C707.597 809.93 704.041 815.251 699.559 819.733C695.076 824.216 689.755 827.771 683.898 830.197C678.918 832.26 673.633 833.469 668.265 833.785L668.265 833.872L594.437 833.872C594.438 822.895 603.336 813.996 614.313 813.996L665.426 813.996L665.426 813.963C669.15 813.963 672.838 813.229 676.279 811.804C679.72 810.378 682.847 808.29 685.48 805.656C688.114 803.023 690.204 799.895 691.629 796.454C693.054 793.013 693.788 789.325 693.788 785.601C693.788 781.876 693.054 778.188 691.629 774.747C690.204 771.306 688.114 768.179 685.48 765.546C682.847 762.913 679.72 760.824 676.279 759.398C672.838 757.973 669.15 757.239 665.426 757.239L665.426 737.33C671.765 737.33 678.042 738.579 683.898 741.005C689.755 743.431 695.076 746.986 699.559 751.468C704.041 755.95 707.597 761.273 710.022 767.129C712.448 772.985 713.697 779.262 713.697 785.601ZM713.697 990.733C713.697 997.072 712.448 1003.35 710.022 1009.21C707.597 1015.06 704.041 1020.38 699.559 1024.87C695.076 1029.35 689.755 1032.9 683.898 1035.33C678.918 1037.39 673.633 1038.6 668.265 1038.92L668.265 1039L594.437 1039C594.438 1028.03 603.336 1019.13 614.313 1019.13L665.426 1019.13L665.426 1019.1C669.15 1019.1 672.838 1018.36 676.279 1016.94C679.72 1015.51 682.847 1013.42 685.48 1010.79C688.114 1008.15 690.204 1005.03 691.629 1001.59C693.054 998.146 693.788 994.458 693.788 990.733C693.788 987.009 693.054 983.321 691.629 979.88C690.204 976.439 688.114 973.312 685.48 970.679C682.847 968.045 679.72 965.955 676.279 964.53C672.838 963.105 669.15 962.372 665.426 962.372L665.426 942.463C671.765 942.463 678.042 943.711 683.898 946.137C689.755 948.562 695.076 952.118 699.559 956.601C704.041 961.083 707.597 966.404 710.022 972.261C712.448 978.117 713.697 984.395 713.697 990.733ZM856.803 41C856.803 51.9772 847.904 60.8758 836.927 60.876L785.814 60.876L785.814 60.9092C782.09 60.9092 778.402 61.6431 774.961 63.0684C771.52 64.4936 768.393 66.5824 765.76 69.2158C763.126 71.8493 761.037 74.9762 759.611 78.417C758.186 81.8578 757.452 85.5462 757.452 89.2705C757.452 92.995 758.186 96.684 759.611 100.125C761.037 103.566 763.126 106.693 765.76 109.326C768.393 111.96 771.52 114.048 774.961 115.474C778.402 116.899 782.09 117.633 785.814 117.633L785.814 137.542C779.476 137.542 773.198 136.293 767.342 133.867C761.485 131.441 756.164 127.886 751.682 123.403C747.199 118.921 743.644 113.6 741.218 107.743C738.792 101.887 737.543 95.6094 737.543 89.2705C737.543 82.9318 738.792 76.6551 741.218 70.7988C743.644 64.9425 747.199 59.621 751.682 55.1387C756.164 50.6564 761.485 47.1006 767.342 44.6748C772.322 42.6118 777.607 41.4032 782.976 41.0869L782.976 41L856.803 41ZM856.804 246C856.804 256.977 847.905 265.876 836.928 265.876L785.815 265.876L785.815 265.909C782.091 265.909 778.403 266.643 774.962 268.068C771.521 269.494 768.394 271.582 765.761 274.216C763.127 276.849 761.038 279.976 759.612 283.417C758.187 286.858 757.453 290.546 757.453 294.271C757.453 297.995 758.187 301.684 759.612 305.125C761.038 308.566 763.127 311.693 765.761 314.326C768.394 316.96 771.521 319.048 774.962 320.474C778.403 321.899 782.091 322.633 785.815 322.633L785.815 342.542C779.476 342.542 773.199 341.293 767.343 338.867C761.486 336.441 756.165 332.886 751.683 328.403C747.2 323.921 743.645 318.6 741.219 312.743C738.793 306.887 737.544 300.609 737.544 294.271C737.544 287.932 738.793 281.655 741.219 275.799C743.645 269.942 747.2 264.621 751.683 260.139C756.165 255.656 761.486 252.101 767.343 249.675C772.323 247.612 777.608 246.403 782.977 246.087L782.977 246L856.804 246ZM856.804 451.123C856.804 462.1 847.905 471 836.928 471L785.815 471L785.815 471.032C782.091 471.032 778.403 471.766 774.962 473.191C771.521 474.617 768.394 476.706 765.761 479.34C763.127 481.973 761.038 485.1 759.612 488.541C758.187 491.982 757.453 495.67 757.453 499.395C757.453 503.119 758.187 506.807 759.612 510.248C761.038 513.689 763.127 516.816 765.761 519.449C768.394 522.083 771.521 524.172 774.962 525.598C778.403 527.023 782.091 527.756 785.815 527.756L785.815 547.665C779.476 547.665 773.199 546.417 767.343 543.991C761.486 541.565 756.165 538.01 751.683 533.527C747.2 529.045 743.645 523.723 741.219 517.867C738.793 512.011 737.544 505.733 737.544 499.395C737.544 493.056 738.793 486.778 741.219 480.922C743.645 475.065 747.2 469.744 751.683 465.262C756.165 460.779 761.486 457.224 767.343 454.798C772.323 452.735 777.608 451.527 782.977 451.211L782.977 451.123L856.804 451.123ZM856.804 656.245C856.803 667.222 847.905 676.121 836.928 676.121L785.815 676.121L785.815 676.154C782.091 676.154 778.403 676.887 774.962 678.312C771.521 679.738 768.394 681.827 765.761 684.461C763.127 687.095 761.038 690.221 759.612 693.662C758.187 697.103 757.453 700.791 757.453 704.516C757.453 708.24 758.187 711.928 759.612 715.369C761.038 718.81 763.127 721.937 765.761 724.57C768.394 727.204 771.521 729.294 774.962 730.719C778.403 732.144 782.091 732.878 785.815 732.878L785.815 752.787C779.476 752.787 773.199 751.538 767.343 749.112C761.486 746.687 756.165 743.131 751.683 738.648C747.2 734.166 743.645 728.845 741.219 722.988C738.793 717.132 737.544 710.854 737.544 704.516C737.544 698.177 738.793 691.899 741.219 686.043C743.645 680.187 747.2 674.865 751.683 670.383C756.165 665.901 761.486 662.345 767.343 659.919C772.324 657.856 777.609 656.648 782.978 656.332L782.978 656.245L856.804 656.245ZM856.804 861.367C856.804 872.344 847.905 881.244 836.928 881.244L785.815 881.244L785.815 881.276C782.091 881.276 778.403 882.01 774.962 883.436C771.521 884.861 768.394 886.95 765.761 889.583C763.127 892.216 761.038 895.343 759.612 898.784C758.187 902.225 757.453 905.914 757.453 909.639C757.453 913.363 758.187 917.051 759.612 920.492C761.038 923.933 763.127 927.06 765.761 929.693C768.394 932.327 771.521 934.416 774.962 935.841C778.403 937.266 782.091 938 785.815 938L785.815 957.909C779.476 957.909 773.199 956.66 767.343 954.234C761.486 951.809 756.165 948.254 751.683 943.771C747.2 939.289 743.645 933.967 741.219 928.11C738.793 922.254 737.544 915.977 737.544 909.639C737.544 903.3 738.793 897.022 741.219 891.166C743.645 885.31 747.2 879.988 751.683 875.506C756.165 871.024 761.486 867.468 767.343 865.042C772.324 862.979 777.609 861.77 782.978 861.454L782.978 861.367L856.804 861.367ZM856.806 170.366C856.806 176.705 855.557 182.982 853.131 188.839C850.705 194.695 847.149 200.017 842.667 204.499C838.185 208.981 832.863 212.537 827.007 214.963C822.026 217.026 816.741 218.235 811.372 218.551L811.372 218.638L737.546 218.638C737.546 207.66 746.445 198.761 757.422 198.761L808.534 198.761L808.534 198.729C812.259 198.728 815.947 197.995 819.388 196.569C822.829 195.144 825.955 193.055 828.589 190.421C831.222 187.787 833.312 184.661 834.737 181.22C836.163 177.779 836.896 174.091 836.896 170.366C836.896 166.642 836.163 162.954 834.737 159.513C833.312 156.072 831.222 152.945 828.589 150.312C825.955 147.678 822.829 145.588 819.388 144.163C815.947 142.738 812.259 142.005 808.534 142.005L808.534 122.096C814.873 122.096 821.15 123.344 827.007 125.77C832.863 128.195 838.185 131.751 842.667 136.233C847.149 140.716 850.705 146.037 853.131 151.894C855.557 157.75 856.806 164.027 856.806 170.366ZM856.806 375.366C856.806 381.705 855.557 387.982 853.131 393.839C850.705 399.695 847.149 405.017 842.667 409.499C838.185 413.981 832.863 417.537 827.007 419.963C822.026 422.026 816.741 423.235 811.372 423.551L811.372 423.638L737.546 423.638C737.546 412.661 746.445 403.761 757.422 403.761L808.534 403.761L808.534 403.729C812.259 403.729 815.947 402.995 819.388 401.569C822.829 400.144 825.955 398.054 828.589 395.421C831.222 392.787 833.312 389.661 834.737 386.22C836.163 382.779 836.896 379.091 836.896 375.366C836.896 371.642 836.163 367.954 834.737 364.513C833.312 361.072 831.222 357.945 828.589 355.312C825.955 352.678 822.829 350.588 819.388 349.163C815.947 347.738 812.258 347.005 808.534 347.005L808.534 327.096C814.873 327.096 821.15 328.344 827.007 330.77C832.863 333.195 838.185 336.751 842.667 341.233C847.149 345.716 850.705 351.037 853.131 356.894C855.557 362.75 856.806 369.027 856.806 375.366ZM856.806 580.48C856.806 586.819 855.557 593.097 853.131 598.953C850.705 604.809 847.149 610.131 842.667 614.613C838.185 619.095 832.863 622.651 827.007 625.077C822.026 627.14 816.74 628.349 811.372 628.665L811.372 628.751L737.546 628.751C737.546 617.774 746.445 608.875 757.422 608.875L808.534 608.875L808.534 608.843C812.258 608.843 815.947 608.109 819.388 606.684C822.829 605.258 825.955 603.169 828.589 600.535C831.222 597.902 833.312 594.775 834.737 591.334C836.163 587.893 836.896 584.205 836.896 580.48C836.896 576.756 836.163 573.068 834.737 569.627C833.312 566.186 831.222 563.059 828.589 560.426C825.955 557.792 822.829 555.703 819.388 554.277C815.947 552.852 812.259 552.118 808.534 552.118L808.534 532.21C814.873 532.21 821.15 533.458 827.007 535.884C832.863 538.31 838.185 541.865 842.667 546.348C847.149 550.83 850.705 556.151 853.131 562.008C855.557 567.864 856.806 574.141 856.806 580.48ZM856.806 785.61C856.806 791.949 855.557 798.227 853.131 804.083C850.705 809.939 847.149 815.261 842.667 819.743C838.185 824.225 832.863 827.781 827.007 830.207C822.026 832.27 816.741 833.479 811.372 833.795L811.372 833.881L737.546 833.881C737.546 822.904 746.445 814.005 757.422 814.005L808.534 814.005L808.534 813.972C812.259 813.972 815.947 813.239 819.388 811.813C822.829 810.388 825.955 808.299 828.589 805.665C831.222 803.031 833.312 799.905 834.737 796.464C836.163 793.023 836.896 789.335 836.896 785.61C836.896 781.886 836.162 778.198 834.737 774.757C833.312 771.316 831.222 768.189 828.589 765.556C825.955 762.922 822.829 760.832 819.388 759.407C815.947 757.982 812.258 757.248 808.534 757.248L808.534 737.339C814.873 737.339 821.15 738.588 827.007 741.014C832.863 743.439 838.185 746.995 842.667 751.478C847.149 755.96 850.705 761.281 853.131 767.138C855.557 772.994 856.806 779.271 856.806 785.61ZM856.806 990.725C856.806 997.064 855.557 1003.34 853.131 1009.2C850.705 1015.05 847.149 1020.38 842.667 1024.86C838.185 1029.34 832.863 1032.9 827.007 1035.32C822.026 1037.38 816.741 1038.59 811.372 1038.91L811.372 1039L737.546 1039C737.546 1028.02 746.445 1019.12 757.422 1019.12L808.534 1019.12L808.534 1019.09C812.258 1019.09 815.947 1018.35 819.388 1016.93C822.829 1015.5 825.955 1013.41 828.589 1010.78C831.222 1008.15 833.312 1005.02 834.737 1001.58C836.163 998.137 836.896 994.449 836.896 990.725C836.896 987 836.162 983.312 834.737 979.871C833.312 976.43 831.222 973.303 828.589 970.67C825.955 968.036 822.829 965.947 819.388 964.521C815.947 963.096 812.258 962.362 808.534 962.362L808.534 942.453C814.873 942.453 821.15 943.702 827.007 946.128C832.863 948.554 838.185 952.11 842.667 956.592C847.149 961.074 850.705 966.396 853.131 972.252C855.557 978.108 856.806 984.386 856.806 990.725Z" fill="url(#paint0_linear_1511_880)"/>
<path d="M1056.25 539.498C1070.56 539.499 1082.17 551.101 1082.17 565.414V632.06H1082.21C1082.21 636.916 1083.17 641.725 1085.03 646.211C1086.88 650.698 1089.61 654.775 1093.04 658.209C1096.48 661.643 1100.55 664.367 1105.04 666.226C1109.53 668.084 1114.34 669.04 1119.19 669.04C1124.05 669.04 1128.86 668.084 1133.34 666.226C1137.83 664.367 1141.91 661.643 1145.34 658.209C1148.77 654.775 1151.5 650.698 1153.36 646.211C1155.22 641.725 1156.17 636.916 1156.17 632.06H1182.13C1182.13 640.325 1180.5 648.51 1177.34 656.146C1174.18 663.782 1169.54 670.72 1163.7 676.565C1157.85 682.409 1150.91 687.045 1143.28 690.208C1135.64 693.371 1127.46 695 1119.19 695C1110.93 695 1102.74 693.371 1095.11 690.208C1087.47 687.045 1080.53 682.409 1074.69 676.565C1068.84 670.72 1064.21 663.782 1061.04 656.146C1058.35 649.651 1056.77 642.76 1056.36 635.76H1056.25V539.498Z" fill="#EC4899"/>
<path d="M1208.06 480.262C1216.32 480.262 1224.51 481.89 1232.14 485.053C1239.78 488.217 1246.72 492.853 1252.56 498.697C1258.4 504.542 1263.04 511.48 1266.2 519.116C1269.37 526.752 1271 534.937 1271 543.202C1271 551.467 1269.37 559.653 1266.2 567.289C1263.04 574.925 1258.4 581.863 1252.56 587.708C1246.72 593.552 1239.78 598.188 1232.14 601.351C1225.65 604.041 1218.76 605.62 1211.76 606.033V606.142H1115.5C1115.5 591.829 1127.1 580.226 1141.41 580.226H1208.06V580.183C1212.91 580.183 1217.72 579.226 1222.21 577.368C1226.69 575.509 1230.77 572.786 1234.21 569.352C1237.64 565.918 1240.36 561.841 1242.22 557.354C1244.08 552.868 1245.04 548.058 1245.04 543.202C1245.04 538.346 1244.08 533.537 1242.22 529.051C1240.36 524.564 1237.64 520.486 1234.21 517.052C1230.77 513.619 1226.69 510.895 1222.21 509.037C1217.72 507.178 1212.91 506.221 1208.06 506.221V480.262Z" fill="#EC4899"/>
<path fill-rule="evenodd" clip-rule="evenodd" d="M1119.2 384C1127.46 384 1135.65 385.628 1143.28 388.791C1150.92 391.954 1157.86 396.59 1163.7 402.435C1169.55 408.279 1174.18 415.218 1177.35 422.854C1180.04 429.348 1181.61 436.238 1182.03 443.236H1182.14V539.498C1167.82 539.498 1156.22 527.895 1156.22 513.582V446.94H1156.18C1156.18 442.084 1155.22 437.275 1153.36 432.788C1151.5 428.301 1148.78 424.225 1145.35 420.791C1141.91 417.357 1137.84 414.633 1133.35 412.774C1128.86 410.916 1124.05 409.959 1119.2 409.959C1114.34 409.959 1109.53 410.916 1105.05 412.774C1100.56 414.633 1096.48 417.357 1093.05 420.791C1089.61 424.225 1086.89 428.301 1085.03 432.788C1083.17 437.275 1082.22 442.084 1082.22 446.94H1056.26C1056.26 438.675 1057.89 430.491 1061.05 422.854C1064.21 415.218 1068.85 408.279 1074.69 402.435C1080.54 396.59 1087.48 391.954 1095.11 388.791C1102.75 385.628 1110.93 384 1119.2 384Z" fill="#EC4899"/>
<path d="M1115.5 480.261C1115.5 494.575 1103.89 506.178 1089.58 506.178H1022.94V506.221C1018.08 506.221 1013.27 507.178 1008.79 509.036C1004.3 510.894 1000.22 513.619 996.791 517.052C993.357 520.486 990.633 524.563 988.774 529.05C986.916 533.536 985.959 538.346 985.959 543.202C985.959 548.058 986.916 552.868 988.774 557.354C990.633 561.841 993.357 565.917 996.791 569.351C1000.22 572.785 1004.3 575.509 1008.79 577.368C1013.27 579.226 1018.08 580.183 1022.94 580.183V606.142C1014.67 606.142 1006.49 604.514 998.854 601.351C991.217 598.188 984.279 593.552 978.435 587.708C972.59 581.863 967.954 574.924 964.791 567.288C961.628 559.652 960 551.467 960 543.202C960 534.937 961.628 526.752 964.791 519.116C967.954 511.48 972.59 504.541 978.435 498.696C984.279 492.852 991.217 488.216 998.854 485.052C1005.35 482.363 1012.24 480.783 1019.24 480.371V480.261H1115.5Z" fill="#EC4899"/>
<path d="M1340.05 541.172C1336.23 541.172 1332.64 540.5 1329.27 539.156C1325.92 537.781 1323.05 535.922 1320.64 533.578C1318.23 531.203 1316.33 528.359 1314.92 525.047C1313.55 521.734 1312.86 518.203 1312.86 514.453V473.766H1324.2V514.266C1324.2 518.797 1325.7 522.578 1328.7 525.609C1331.73 528.609 1335.52 530.109 1340.05 530.109C1344.61 530.109 1348.38 528.609 1351.34 525.609C1354.34 522.578 1355.84 518.797 1355.84 514.266V473.766H1367.28V514.453C1367.28 522.078 1364.69 528.438 1359.5 533.531C1354.31 538.625 1347.83 541.172 1340.05 541.172ZM1406.8 489.891C1412.61 489.891 1417.28 491.656 1420.81 495.188C1424.38 498.719 1426.16 503.391 1426.16 509.203V540H1415.42V512.719C1415.42 508.969 1414.31 505.953 1412.09 503.672C1409.88 501.391 1406.92 500.25 1403.23 500.25C1399.36 500.25 1396.23 501.406 1393.86 503.719C1391.48 506.031 1390.3 509.094 1390.3 512.906V540H1379.52V491.062H1390.3V497.391C1394.33 492.391 1399.83 489.891 1406.8 489.891ZM1443.5 482.766C1441.56 482.766 1439.94 482.109 1438.62 480.797C1437.31 479.484 1436.66 477.875 1436.66 475.969C1436.66 474 1437.31 472.375 1438.62 471.094C1439.94 469.812 1441.56 469.172 1443.5 469.172C1445.47 469.172 1447.11 469.812 1448.42 471.094C1449.73 472.375 1450.39 474 1450.39 475.969C1450.39 477.906 1449.73 479.531 1448.42 480.844C1447.11 482.125 1445.47 482.766 1443.5 482.766ZM1438.11 540V491.062H1448.89V540H1438.11ZM1491.12 500.812H1477.3V523.969C1477.3 526.219 1477.91 527.922 1479.12 529.078C1480.38 530.203 1482.14 530.766 1484.42 530.766C1486.58 530.766 1488.81 530.203 1491.12 529.078V539.156C1488.47 540.5 1485.48 541.172 1482.17 541.172C1477.02 541.172 1473.12 539.812 1470.5 537.094C1467.88 534.375 1466.56 530.578 1466.56 525.703V500.812H1458.27V491.062H1466.56V478.359H1477.3V491.062H1491.12V500.812ZM1536.83 491.062H1548.83L1523.75 549.328C1522.44 552.484 1520.52 554.953 1517.98 556.734C1515.48 558.516 1512.73 559.406 1509.73 559.406C1507.67 559.406 1505.52 558.953 1503.27 558.047C1501.05 557.172 1499.14 556.016 1497.55 554.578L1501.86 546.234C1503.64 548.109 1505.69 549.047 1508 549.047C1510.59 549.047 1512.55 547.656 1513.86 544.875L1516.48 539.438L1496 491.062H1508.33L1522.53 526.734L1536.83 491.062Z" fill="#EC4899"/>
<path d="M1341.36 582.891C1345.86 582.891 1349.95 584.016 1353.64 586.266C1357.33 588.484 1360.22 591.562 1362.31 595.5C1364.41 599.406 1365.45 603.75 1365.45 608.531C1365.45 613.312 1364.41 617.672 1362.31 621.609C1360.22 625.516 1357.33 628.594 1353.64 630.844C1349.95 633.062 1345.86 634.172 1341.36 634.172C1337.8 634.172 1334.55 633.453 1331.61 632.016C1328.67 630.578 1326.17 628.531 1324.11 625.875V633H1313.33V563.859H1324.11V591.141C1326.14 588.516 1328.62 586.484 1331.56 585.047C1334.53 583.609 1337.8 582.891 1341.36 582.891ZM1328.42 619.406C1331.33 622.312 1334.94 623.766 1339.25 623.766C1343.56 623.766 1347.16 622.312 1350.03 619.406C1352.91 616.469 1354.34 612.844 1354.34 608.531C1354.34 604.219 1352.91 600.594 1350.03 597.656C1347.16 594.719 1343.56 593.25 1339.25 593.25C1334.94 593.25 1331.33 594.719 1328.42 597.656C1325.55 600.594 1324.11 604.219 1324.11 608.531C1324.11 612.844 1325.55 616.469 1328.42 619.406ZM1397.28 634.172C1390.47 634.172 1384.98 632.281 1380.83 628.5C1376.7 624.719 1374.64 619.719 1374.64 613.5V584.062H1385.38V612.094C1385.38 615.594 1386.47 618.422 1388.66 620.578C1390.84 622.703 1393.72 623.766 1397.28 623.766C1400.84 623.766 1403.7 622.703 1405.86 620.578C1408.02 618.453 1409.09 615.625 1409.09 612.094V584.062H1419.83V613.5C1419.83 619.719 1417.77 624.719 1413.64 628.5C1409.52 632.281 1404.06 634.172 1397.28 634.172ZM1437.12 575.766C1435.19 575.766 1433.56 575.109 1432.25 573.797C1430.94 572.484 1430.28 570.875 1430.28 568.969C1430.28 567 1430.94 565.375 1432.25 564.094C1433.56 562.812 1435.19 562.172 1437.12 562.172C1439.09 562.172 1440.73 562.812 1442.05 564.094C1443.36 565.375 1444.02 567 1444.02 568.969C1444.02 570.906 1443.36 572.531 1442.05 573.844C1440.73 575.125 1439.09 575.766 1437.12 575.766ZM1431.73 633V584.062H1442.52V633H1431.73ZM1455.27 633V563.859H1466.05V633H1455.27ZM1517.28 563.859H1528.06V633H1517.28V625.969C1512.97 631.438 1507.25 634.172 1500.12 634.172C1495.59 634.172 1491.48 633.062 1487.8 630.844C1484.11 628.594 1481.22 625.516 1479.12 621.609C1477.06 617.703 1476.03 613.344 1476.03 608.531C1476.03 603.719 1477.06 599.359 1479.12 595.453C1481.22 591.547 1484.11 588.484 1487.8 586.266C1491.48 584.016 1495.59 582.891 1500.12 582.891C1507.28 582.891 1513 585.609 1517.28 591.047V563.859ZM1502.23 623.766C1506.55 623.766 1510.12 622.312 1512.97 619.406C1515.84 616.469 1517.28 612.844 1517.28 608.531C1517.28 604.188 1515.84 600.562 1512.97 597.656C1510.12 594.719 1506.55 593.25 1502.23 593.25C1497.89 593.25 1494.27 594.719 1491.36 597.656C1488.48 600.562 1487.05 604.188 1487.05 608.531C1487.05 612.844 1488.48 616.469 1491.36 619.406C1494.27 622.312 1497.89 623.766 1502.23 623.766ZM1589.42 608.625C1589.42 610.062 1589.33 611.469 1589.14 612.844H1549.48C1550.36 616.375 1552.2 619.203 1555.02 621.328C1557.86 623.422 1561.27 624.469 1565.23 624.469C1568.3 624.469 1571.14 623.828 1573.77 622.547C1576.42 621.266 1578.48 619.656 1579.95 617.719L1587.22 623.953C1584.69 627.141 1581.47 629.641 1577.56 631.453C1573.69 633.266 1569.48 634.172 1564.95 634.172C1557.2 634.172 1550.75 631.703 1545.59 626.766C1540.47 621.828 1537.91 615.688 1537.91 608.344C1537.91 603.594 1539.03 599.281 1541.28 595.406C1543.53 591.5 1546.62 588.438 1550.56 586.219C1554.53 584 1558.92 582.891 1563.73 582.891C1571.08 582.891 1577.19 585.344 1582.06 590.25C1586.97 595.125 1589.42 601.25 1589.42 608.625ZM1563.64 592.594C1560.17 592.594 1557.14 593.641 1554.55 595.734C1551.98 597.828 1550.27 600.594 1549.39 604.031H1577.94C1577.12 600.594 1575.41 597.828 1572.78 595.734C1570.19 593.641 1567.14 592.594 1563.64 592.594ZM1624.81 583.266H1626.64V594.328H1624.81C1620.06 594.328 1616.33 595.672 1613.61 598.359C1610.92 601.016 1609.58 604.625 1609.58 609.188V633H1598.8V584.062H1609.58V591.234C1613.48 585.922 1618.56 583.266 1624.81 583.266Z" fill="#EC4899"/>
<defs>
<linearGradient id="paint0_linear_1511_880" x1="143.643" y1="558.456" x2="837.724" y2="558.456" gradientUnits="userSpaceOnUse">
<stop stop-color="#EC4899"/>
<stop offset="1" stop-color="#EC4899" stop-opacity="0"/>
</linearGradient>
</defs>
</svg>
