<svg width="512" height="512" viewBox="0 0 512 512" fill="none" xmlns="http://www.w3.org/2000/svg">
<rect width="512" height="512" rx="70" fill="#C43A7E"/>
<path d="M201.524 256C214.687 256 225.357 266.67 225.357 279.833V341.119H225.397C225.397 345.585 226.277 350.008 227.986 354.134C229.695 358.26 232.201 362.008 235.358 365.166C238.516 368.324 242.265 370.829 246.391 372.538C250.517 374.247 254.939 375.127 259.405 375.127C263.871 375.127 268.294 374.247 272.42 372.538C276.546 370.829 280.295 368.324 283.453 365.166C286.611 362.008 289.116 358.26 290.825 354.134C292.534 350.008 293.414 345.585 293.414 341.119H317.287C317.287 348.72 315.789 356.246 312.881 363.269C309.972 370.291 305.709 376.672 300.334 382.047C294.959 387.422 288.578 391.685 281.556 394.594C274.533 397.503 267.006 399 259.405 399C251.804 399 244.278 397.502 237.256 394.594C230.233 391.685 223.852 387.422 218.478 382.047C213.103 376.672 208.839 370.291 205.931 363.269C203.457 357.297 202.005 350.961 201.626 344.524H201.524V256Z" fill="white"/>
<path d="M341.121 201.524C348.722 201.524 356.248 203.022 363.271 205.931C370.293 208.839 376.674 213.103 382.049 218.478C387.423 223.852 391.687 230.233 394.596 237.255C397.504 244.277 399.002 251.804 399.002 259.405C399.002 267.006 397.505 274.533 394.596 281.556C391.687 288.578 387.424 294.959 382.049 300.334C376.674 305.709 370.293 309.972 363.271 312.881C357.298 315.355 350.961 316.806 344.523 317.186V317.286H255.999C255.999 304.124 266.67 293.453 279.833 293.453H341.121V293.414C345.587 293.414 350.009 292.534 354.135 290.825C358.261 289.116 362.01 286.611 365.168 283.453C368.326 280.295 370.831 276.546 372.54 272.42C374.249 268.294 375.129 263.871 375.129 259.405C375.129 254.939 374.249 250.517 372.54 246.391C370.831 242.265 368.326 238.516 365.168 235.358C362.01 232.2 358.261 229.695 354.135 227.986C350.009 226.277 345.587 225.397 341.121 225.397V201.524Z" fill="white"/>
<path d="M259.399 113C267 113 274.527 114.497 281.55 117.406C288.572 120.315 294.953 124.579 300.327 129.953C305.702 135.328 309.965 141.708 312.874 148.73C315.348 154.702 316.799 161.039 317.179 167.476H317.28V256C304.118 256 293.447 245.33 293.447 232.167V170.881H293.407C293.407 166.415 292.527 161.992 290.818 157.866C289.109 153.74 286.604 149.992 283.446 146.834C280.288 143.676 276.54 141.171 272.414 139.462C268.288 137.753 263.865 136.873 259.399 136.873C254.933 136.873 250.511 137.753 246.385 139.462C242.259 141.171 238.509 143.676 235.352 146.834C232.194 149.992 229.689 153.74 227.979 157.866C226.27 161.992 225.391 166.415 225.391 170.881H201.519C201.519 163.28 203.015 155.753 205.924 148.73C208.833 141.708 213.096 135.328 218.471 129.953C223.845 124.578 230.227 120.315 237.249 117.406C244.271 114.497 251.798 113 259.399 113Z" fill="white"/>
<path d="M255.997 201.524C255.997 214.687 245.327 225.357 232.164 225.357H170.881V225.397C166.415 225.398 161.993 226.277 157.867 227.986C153.741 229.695 149.992 232.2 146.834 235.358C143.676 238.516 141.171 242.265 139.462 246.391C137.753 250.517 136.873 254.939 136.873 259.405C136.873 263.871 137.753 268.294 139.462 272.42C141.171 276.546 143.676 280.295 146.834 283.453C149.992 286.611 153.741 289.116 157.867 290.825C161.993 292.534 166.415 293.414 170.881 293.414V317.286C163.28 317.286 155.754 315.79 148.731 312.881C141.709 309.972 135.328 305.709 129.953 300.334C124.578 294.959 120.315 288.578 117.406 281.556C114.497 274.533 113 267.006 113 259.405C113 251.804 114.497 244.277 117.406 237.255C120.315 230.233 124.579 223.852 129.953 218.478C135.328 213.103 141.709 208.839 148.731 205.931C154.702 203.457 161.038 202.005 167.474 201.625V201.524H255.997Z" fill="white"/>
</svg>
