<svg width="164" height="314" viewBox="0 0 164 314" fill="none" xmlns="http://www.w3.org/2000/svg">
<g clip-path="url(#clip0_1511_695)">
<rect width="164" height="314" fill="white"/>
<path fill-rule="evenodd" clip-rule="evenodd" d="M72.4756 50C74.7766 50.0003 76.6416 51.866 76.6416 54.167V64.8809H76.6484C76.6484 65.6616 76.8028 66.4349 77.1016 67.1562C77.4003 67.8774 77.8378 68.533 78.3896 69.085C78.9417 69.6371 79.598 70.0752 80.3193 70.374C81.0405 70.6727 81.8132 70.8271 82.5938 70.8271C83.3745 70.8271 84.1478 70.6728 84.8691 70.374C85.5905 70.0752 86.2458 69.6371 86.7979 69.085C87.3499 68.5329 87.7881 67.8776 88.0869 67.1562C88.3857 66.435 88.54 65.6616 88.54 64.8809H92.7129C92.7129 66.2097 92.4519 67.5262 91.9434 68.7539C91.4348 69.9816 90.6887 71.0965 89.749 72.0361C88.8094 72.9758 87.6945 73.7219 86.4668 74.2305C85.2391 74.739 83.9226 75 82.5938 75C81.265 74.9999 79.9492 74.7389 78.7217 74.2305C77.494 73.7219 76.3781 72.9758 75.4385 72.0361C74.4991 71.0966 73.7536 69.9814 73.2451 68.7539C72.8127 67.7099 72.5605 66.6019 72.4941 65.4766H72.4756V50Z" fill="#EC4899"/>
<path d="M96.8809 40.4766C98.2096 40.4766 99.5254 40.7377 100.753 41.2461C101.981 41.7546 103.096 42.5008 104.036 43.4404C104.976 44.38 105.721 45.4952 106.229 46.7227C106.738 47.9504 107 49.2668 107 50.5957C107 51.9244 106.738 53.2402 106.229 54.4678C105.721 55.6955 104.976 56.8113 104.036 57.751C103.096 58.6906 101.981 59.4358 100.753 59.9443C99.7092 60.3767 98.6016 60.628 97.4766 60.6943V60.7148H82C82 58.4136 83.8658 56.5479 86.167 56.5479H96.8809V56.541C97.6616 56.541 98.435 56.3867 99.1562 56.0879C99.8774 55.7891 100.533 55.3518 101.085 54.7998C101.637 54.2478 102.075 53.5924 102.374 52.8711C102.673 52.1498 102.826 51.3764 102.826 50.5957C102.826 49.815 102.673 49.0416 102.374 48.3203C102.075 47.5991 101.637 46.9436 101.085 46.3916C100.533 45.8396 99.8775 45.4013 99.1562 45.1025C98.435 44.8038 97.6616 44.6494 96.8809 44.6494V40.4766Z" fill="#EC4899"/>
<path d="M82.5947 25C83.9235 25 85.2392 25.262 86.4668 25.7705C87.6945 26.279 88.8104 27.0242 89.75 27.9639C90.6896 28.9035 91.4348 30.0194 91.9434 31.2471C92.3757 32.2909 92.628 33.3984 92.6943 34.5234H92.7139V50C90.4127 50 88.5469 48.1342 88.5469 45.833V35.1191H88.54C88.54 34.3384 88.3867 33.5651 88.0879 32.8438C87.7891 32.1224 87.3509 31.4671 86.7988 30.915C86.2468 30.363 85.5914 29.9248 84.8701 29.626C84.1488 29.3272 83.3755 29.1738 82.5947 29.1738C81.814 29.1738 81.0407 29.3272 80.3193 29.626C79.598 29.9248 78.9427 30.363 78.3906 30.915C77.8385 31.4671 77.4004 32.1224 77.1016 32.8438C76.8028 33.5651 76.6494 34.3384 76.6494 35.1191H72.4756C72.4756 33.7904 72.7376 32.4747 73.2461 31.2471C73.7546 30.0194 74.4998 28.9035 75.4395 27.9639C76.3791 27.0242 77.495 26.279 78.7227 25.7705C79.9503 25.2621 81.266 25 82.5947 25Z" fill="#EC4899"/>
<path d="M82 40.4766C81.9998 42.7776 80.1341 44.6426 77.833 44.6426H67.1191V44.6494C66.3384 44.6494 65.565 44.8038 64.8438 45.1025C64.1225 45.4013 63.467 45.8396 62.915 46.3916C62.3631 46.9436 61.9247 47.5991 61.626 48.3203C61.3273 49.0416 61.1738 49.815 61.1738 50.5957C61.1739 51.3764 61.3272 52.1498 61.626 52.8711C61.9248 53.5924 62.363 54.2478 62.915 54.7998C63.4671 55.3519 64.1225 55.7901 64.8438 56.0889C65.565 56.3876 66.3384 56.541 67.1191 56.541V60.7148C65.7904 60.7148 64.4747 60.4528 63.2471 59.9443C62.0194 59.4358 60.9035 58.6906 59.9639 57.751C59.0242 56.8113 58.279 55.6955 57.7705 54.4678C57.262 53.2402 57 51.9244 57 50.5957C57 49.2668 57.262 47.9504 57.7705 46.7227C58.279 45.4952 59.0244 44.38 59.9639 43.4404C60.9035 42.5008 62.0194 41.7546 63.2471 41.2461C64.2908 40.8138 65.3985 40.5615 66.5234 40.4951V40.4766H82Z" fill="#EC4899"/>
<path d="M46.7515 95.1587C46.2352 95.1587 45.7485 95.0677 45.2915 94.8857C44.8387 94.6995 44.4494 94.4478 44.1235 94.1304C43.7977 93.8088 43.5396 93.4237 43.3491 92.9751C43.1629 92.5265 43.0698 92.0483 43.0698 91.5405V86.0308H44.606V91.5151C44.606 92.1287 44.8091 92.6408 45.2153 93.0513C45.6258 93.4575 46.1379 93.6606 46.7515 93.6606C47.3693 93.6606 47.8792 93.4575 48.2812 93.0513C48.6875 92.6408 48.8906 92.1287 48.8906 91.5151V86.0308H50.4395V91.5405C50.4395 92.5731 50.0882 93.4342 49.3857 94.124C48.6833 94.8138 47.8052 95.1587 46.7515 95.1587ZM55.7905 88.2144C56.5776 88.2144 57.2103 88.4535 57.6885 88.9316C58.1709 89.4098 58.4121 90.0425 58.4121 90.8296V95H56.9585V91.3057C56.9585 90.7979 56.8083 90.3895 56.5078 90.0806C56.2074 89.7716 55.8075 89.6172 55.3081 89.6172C54.7834 89.6172 54.3602 89.7738 54.0386 90.0869C53.717 90.4001 53.5562 90.8148 53.5562 91.3311V95H52.0962V88.373H53.5562V89.23C54.1021 88.5529 54.8468 88.2144 55.7905 88.2144ZM60.7607 87.2495C60.4984 87.2495 60.2783 87.1606 60.1006 86.9829C59.9229 86.8052 59.834 86.5872 59.834 86.3291C59.834 86.0625 59.9229 85.8424 60.1006 85.6689C60.2783 85.4954 60.4984 85.4087 60.7607 85.4087C61.0273 85.4087 61.2495 85.4954 61.4272 85.6689C61.605 85.8424 61.6938 86.0625 61.6938 86.3291C61.6938 86.5915 61.605 86.8115 61.4272 86.9893C61.2495 87.1628 61.0273 87.2495 60.7607 87.2495ZM60.0308 95V88.373H61.4907V95H60.0308ZM67.21 89.6934H65.3374V92.8291C65.3374 93.1338 65.4199 93.3644 65.585 93.521C65.7542 93.6733 65.9933 93.7495 66.3022 93.7495C66.5942 93.7495 66.8968 93.6733 67.21 93.521V94.8857C66.8503 95.0677 66.4461 95.1587 65.9976 95.1587C65.2993 95.1587 64.7725 94.9746 64.417 94.6064C64.0615 94.2383 63.8838 93.7241 63.8838 93.064V89.6934H62.7603V88.373H63.8838V86.6528H65.3374V88.373H67.21V89.6934ZM73.3989 88.373H75.0239L71.6279 96.2632C71.4502 96.6906 71.1899 97.0249 70.8472 97.2661C70.5086 97.5073 70.1362 97.6279 69.73 97.6279C69.4507 97.6279 69.1587 97.5666 68.854 97.4438C68.5535 97.3254 68.2954 97.1688 68.0796 96.9741L68.6636 95.8442C68.9048 96.0981 69.182 96.2251 69.4951 96.2251C69.8464 96.2251 70.1108 96.0368 70.2886 95.6602L70.644 94.9238L67.8701 88.373H69.5396L71.4629 93.2036L73.3989 88.373ZM82.8696 88.2144C83.479 88.2144 84.0334 88.3667 84.5327 88.6714C85.0321 88.9718 85.4235 89.3887 85.707 89.9219C85.9906 90.4508 86.1323 91.0391 86.1323 91.6865C86.1323 92.334 85.9906 92.9243 85.707 93.4575C85.4235 93.9865 85.0321 94.4033 84.5327 94.708C84.0334 95.0085 83.479 95.1587 82.8696 95.1587C82.3872 95.1587 81.9471 95.0614 81.5493 94.8667C81.1515 94.672 80.813 94.3949 80.5337 94.0352V95H79.0737V85.6372H80.5337V89.3315C80.8088 88.9761 81.1452 88.701 81.543 88.5063C81.945 88.3117 82.3872 88.2144 82.8696 88.2144ZM81.1177 93.1592C81.5112 93.5527 82 93.7495 82.584 93.7495C83.168 93.7495 83.6546 93.5527 84.0439 93.1592C84.4333 92.7614 84.6279 92.2705 84.6279 91.6865C84.6279 91.1025 84.4333 90.6117 84.0439 90.2139C83.6546 89.8161 83.168 89.6172 82.584 89.6172C82 89.6172 81.5112 89.8161 81.1177 90.2139C80.7284 90.6117 80.5337 91.1025 80.5337 91.6865C80.5337 92.2705 80.7284 92.7614 81.1177 93.1592ZM90.4424 95.1587C89.5199 95.1587 88.7772 94.9027 88.2144 94.3906C87.6558 93.8786 87.3765 93.2015 87.3765 92.3594V88.373H88.8301V92.1689C88.8301 92.6429 88.9782 93.0259 89.2744 93.3179C89.5706 93.6056 89.96 93.7495 90.4424 93.7495C90.9248 93.7495 91.312 93.6056 91.604 93.3179C91.896 93.0301 92.042 92.6471 92.042 92.1689V88.373H93.4956V92.3594C93.4956 93.2015 93.2163 93.8786 92.6577 94.3906C92.0991 94.9027 91.3607 95.1587 90.4424 95.1587ZM95.8379 87.2495C95.5755 87.2495 95.3555 87.1606 95.1777 86.9829C95 86.8052 94.9111 86.5872 94.9111 86.3291C94.9111 86.0625 95 85.8424 95.1777 85.6689C95.3555 85.4954 95.5755 85.4087 95.8379 85.4087C96.1045 85.4087 96.3267 85.4954 96.5044 85.6689C96.6821 85.8424 96.771 86.0625 96.771 86.3291C96.771 86.5915 96.6821 86.8115 96.5044 86.9893C96.3267 87.1628 96.1045 87.2495 95.8379 87.2495ZM95.1079 95V88.373H96.5679V95H95.1079ZM98.2944 95V85.6372H99.7544V95H98.2944ZM106.692 85.6372H108.152V95H106.692V94.0479C106.108 94.7884 105.334 95.1587 104.369 95.1587C103.756 95.1587 103.199 95.0085 102.7 94.708C102.2 94.4033 101.809 93.9865 101.525 93.4575C101.246 92.9285 101.106 92.3382 101.106 91.6865C101.106 91.0348 101.246 90.4445 101.525 89.9155C101.809 89.3866 102.2 88.9718 102.7 88.6714C103.199 88.3667 103.756 88.2144 104.369 88.2144C105.338 88.2144 106.113 88.5825 106.692 89.3188V85.6372ZM104.655 93.7495C105.239 93.7495 105.723 93.5527 106.108 93.1592C106.498 92.7614 106.692 92.2705 106.692 91.6865C106.692 91.0983 106.498 90.6074 106.108 90.2139C105.723 89.8161 105.239 89.6172 104.655 89.6172C104.067 89.6172 103.576 89.8161 103.182 90.2139C102.793 90.6074 102.598 91.0983 102.598 91.6865C102.598 92.2705 102.793 92.7614 103.182 93.1592C103.576 93.5527 104.067 93.7495 104.655 93.7495ZM116.461 91.6992C116.461 91.8939 116.449 92.0843 116.423 92.2705H111.053C111.172 92.7487 111.421 93.1317 111.802 93.4194C112.187 93.703 112.649 93.8447 113.186 93.8447C113.601 93.8447 113.986 93.758 114.341 93.5845C114.701 93.411 114.98 93.193 115.179 92.9307L116.163 93.7749C115.82 94.2065 115.384 94.5451 114.855 94.7905C114.331 95.036 113.762 95.1587 113.148 95.1587C112.098 95.1587 111.225 94.8244 110.526 94.1558C109.832 93.4871 109.485 92.6556 109.485 91.6611C109.485 91.0179 109.638 90.4339 109.942 89.9092C110.247 89.3802 110.666 88.9655 111.199 88.665C111.737 88.3646 112.331 88.2144 112.983 88.2144C113.977 88.2144 114.805 88.5465 115.465 89.2109C116.129 89.8711 116.461 90.7005 116.461 91.6992ZM112.97 89.5283C112.5 89.5283 112.09 89.6701 111.739 89.9536C111.392 90.2371 111.159 90.6117 111.041 91.0771H114.906C114.796 90.6117 114.563 90.2371 114.208 89.9536C113.857 89.6701 113.444 89.5283 112.97 89.5283ZM121.254 88.2651H121.501V89.7632H121.254C120.611 89.7632 120.105 89.9451 119.737 90.3091C119.373 90.6688 119.191 91.1576 119.191 91.7754V95H117.731V88.373H119.191V89.3442C119.72 88.6248 120.408 88.2651 121.254 88.2651Z" fill="#EC4899"/>
<path fill-rule="evenodd" clip-rule="evenodd" d="M0 315C2.30097 315 4.16602 316.866 4.16602 319.167V329.881H4.17285C4.17285 330.662 4.32723 331.435 4.62598 332.156C4.92469 332.877 5.36218 333.533 5.91406 334.085C6.46616 334.637 7.12241 335.075 7.84375 335.374C8.56489 335.673 9.33763 335.827 10.1182 335.827C10.8989 335.827 11.6723 335.673 12.3936 335.374C13.1149 335.075 13.7702 334.637 14.3223 334.085C14.8744 333.533 15.3125 332.878 15.6113 332.156C15.9101 331.435 16.0645 330.662 16.0645 329.881H20.2373C20.2373 331.21 19.9763 332.526 19.4678 333.754C18.9592 334.982 18.2131 336.096 17.2734 337.036C16.3338 337.976 15.2189 338.722 13.9912 339.23C12.7635 339.739 11.447 340 10.1182 340C8.78946 340 7.47366 339.739 6.24609 339.23C5.01839 338.722 3.90253 337.976 2.96289 337.036C2.02348 336.097 1.27798 334.981 0.769531 333.754C0.337086 332.71 0.0848741 331.602 0.0185547 330.477H0V315ZM27.1182 315C28.4469 315 29.7627 315.261 30.9902 315.77C32.2179 316.278 33.3338 317.024 34.2734 317.964C35.2128 318.903 35.9583 320.019 36.4668 321.246C36.8992 322.29 37.1515 323.398 37.2178 324.523H37.2373V340C34.9361 340 33.0703 338.134 33.0703 335.833V325.119H33.0635C33.0635 324.338 32.9091 323.565 32.6104 322.844C32.3116 322.123 31.8741 321.467 31.3223 320.915C30.7702 320.363 30.1139 319.925 29.3926 319.626C28.6714 319.327 27.8987 319.173 27.1182 319.173C26.3374 319.173 25.5641 319.327 24.8428 319.626C24.1214 319.925 23.4662 320.363 22.9141 320.915C22.362 321.467 21.9238 322.122 21.625 322.844C21.3263 323.565 21.1719 324.338 21.1719 325.119H16.999C16.999 323.79 17.26 322.474 17.7686 321.246C18.2771 320.018 19.0233 318.904 19.9629 317.964C20.9025 317.024 22.0174 316.278 23.2451 315.77C24.4728 315.261 25.7893 315 27.1182 315ZM43 315C45.3012 315 47.167 316.866 47.167 319.167V329.881H47.1738C47.1738 330.662 47.3282 331.435 47.627 332.156C47.9257 332.877 48.3632 333.533 48.915 334.085C49.4671 334.637 50.1234 335.075 50.8447 335.374C51.5659 335.673 52.3386 335.827 53.1191 335.827C53.8999 335.827 54.6732 335.673 55.3945 335.374C56.1159 335.075 56.7711 334.637 57.3232 334.085C57.8753 333.533 58.3135 332.878 58.6123 332.156C58.911 331.435 59.0654 330.662 59.0654 329.881H63.2383C63.2383 331.21 62.9773 332.526 62.4688 333.754C61.9602 334.982 61.214 336.096 60.2744 337.036C59.3348 337.976 58.2199 338.722 56.9922 339.23C55.7645 339.739 54.448 340 53.1191 340C51.7904 340 50.4746 339.739 49.2471 339.23C48.0194 338.722 46.9035 337.976 45.9639 337.036C45.0245 336.097 44.279 334.981 43.7705 333.754C43.3381 332.71 43.0858 331.602 43.0195 330.477H43V315ZM70.1191 315C71.4478 315 72.7636 315.261 73.9912 315.77C75.2189 316.278 76.3348 317.024 77.2744 317.964C78.2138 318.903 78.9593 320.019 79.4678 321.246C79.9002 322.29 80.1524 323.398 80.2188 324.523H80.2373V340C77.9363 340 76.0713 338.134 76.0713 335.833V325.119H76.0645C76.0645 324.338 75.9101 323.565 75.6113 322.844C75.3126 322.123 74.8751 321.467 74.3232 320.915C73.7711 320.363 73.1149 319.925 72.3936 319.626C71.6724 319.327 70.8997 319.173 70.1191 319.173C69.3384 319.173 68.565 319.327 67.8438 319.626C67.1224 319.925 66.4671 320.363 65.915 320.915C65.363 321.467 64.9248 322.122 64.626 322.844C64.3272 323.565 64.1729 324.338 64.1729 325.119H60C60 323.79 60.261 322.474 60.7695 321.246C61.2781 320.018 62.0242 318.904 62.9639 317.964C63.9035 317.024 65.0184 316.278 66.2461 315.77C67.4738 315.261 68.7903 315 70.1191 315ZM86 315C88.301 315 90.166 316.866 90.166 319.167V329.881H90.1729C90.1729 330.662 90.3272 331.435 90.626 332.156C90.9247 332.877 91.3622 333.533 91.9141 334.085C92.4662 334.637 93.1224 335.075 93.8438 335.374C94.5649 335.673 95.3376 335.827 96.1182 335.827C96.8989 335.827 97.6723 335.673 98.3936 335.374C99.1149 335.075 99.7702 334.637 100.322 334.085C100.874 333.533 101.313 332.878 101.611 332.156C101.91 331.435 102.064 330.662 102.064 329.881H106.237C106.237 331.21 105.976 332.526 105.468 333.754C104.959 334.982 104.213 336.096 103.273 337.036C102.334 337.976 101.219 338.722 99.9912 339.23C98.7635 339.739 97.447 340 96.1182 340C94.7895 340 93.4737 339.739 92.2461 339.23C91.0184 338.722 89.9025 337.976 88.9629 337.036C88.0235 336.097 87.278 334.981 86.7695 333.754C86.3371 332.71 86.0849 331.602 86.0186 330.477H86V315ZM113.118 315C114.447 315 115.763 315.261 116.99 315.77C118.218 316.278 119.334 317.024 120.273 317.964C121.213 318.903 121.958 320.019 122.467 321.246C122.899 322.29 123.151 323.398 123.218 324.523H123.237V340C120.936 340 119.07 338.134 119.07 335.833V325.119H119.063C119.063 324.338 118.909 323.565 118.61 322.844C118.312 322.123 117.874 321.467 117.322 320.915C116.77 320.363 116.114 319.925 115.393 319.626C114.671 319.327 113.899 319.173 113.118 319.173C112.337 319.173 111.564 319.327 110.843 319.626C110.121 319.925 109.466 320.363 108.914 320.915C108.362 321.467 107.924 322.122 107.625 322.844C107.326 323.565 107.172 324.338 107.172 325.119H102.999C102.999 323.79 103.26 322.474 103.769 321.246C104.277 320.018 105.023 318.904 105.963 317.964C106.903 317.024 108.017 316.278 109.245 315.77C110.473 315.261 111.789 315 113.118 315ZM129 315C131.301 315 133.167 316.866 133.167 319.167V329.881H133.174C133.174 330.662 133.328 331.435 133.627 332.156C133.926 332.877 134.363 333.533 134.915 334.085C135.467 334.637 136.123 335.075 136.845 335.374C137.566 335.673 138.339 335.827 139.119 335.827C139.9 335.827 140.673 335.673 141.395 335.374C142.116 335.075 142.771 334.637 143.323 334.085C143.875 333.533 144.314 332.878 144.612 332.156C144.911 331.435 145.065 330.662 145.065 329.881H149.238C149.238 331.21 148.977 332.526 148.469 333.754C147.96 334.982 147.214 336.096 146.274 337.036C145.335 337.976 144.22 338.722 142.992 339.23C141.764 339.739 140.448 340 139.119 340C137.79 340 136.475 339.739 135.247 339.23C134.019 338.722 132.904 337.976 131.964 337.036C131.024 336.097 130.279 334.981 129.771 333.754C129.338 332.71 129.086 331.602 129.02 330.477H129V315ZM156.119 315C157.448 315 158.764 315.261 159.991 315.77C161.219 316.278 162.335 317.024 163.274 317.964C164.214 318.903 164.959 320.019 165.468 321.246C165.9 322.29 166.152 323.398 166.219 324.523H166.237V340C163.936 340 162.071 338.134 162.071 335.833V325.119H162.064C162.064 324.338 161.91 323.565 161.611 322.844C161.313 322.123 160.875 321.467 160.323 320.915C159.771 320.363 159.115 319.925 158.394 319.626C157.672 319.327 156.9 319.173 156.119 319.173C155.338 319.173 154.565 319.327 153.844 319.626C153.122 319.925 152.467 320.363 151.915 320.915C151.363 321.467 150.925 322.122 150.626 322.844C150.327 323.565 150.173 324.338 150.173 325.119H146C146 323.79 146.261 322.474 146.77 321.246C147.278 320.018 148.024 318.904 148.964 317.964C149.903 317.024 151.018 316.278 152.246 315.77C153.474 315.261 154.79 315 156.119 315ZM0 285C2.3012 285 4.16699 286.866 4.16699 289.167V299.881H4.17383C4.17383 300.662 4.3282 301.435 4.62695 302.156C4.92566 302.877 5.36316 303.533 5.91504 304.085C6.46713 304.637 7.12338 305.075 7.84473 305.374C8.56586 305.673 9.3386 305.827 10.1191 305.827C10.8999 305.827 11.6732 305.673 12.3945 305.374C13.1159 305.075 13.7711 304.637 14.3232 304.085C14.8753 303.533 15.3135 302.878 15.6123 302.156C15.911 301.435 16.0654 300.662 16.0654 299.881H20.2383C20.2383 301.21 19.9773 302.526 19.4688 303.754C18.9602 304.982 18.214 306.096 17.2744 307.036C16.3348 307.976 15.2199 308.722 13.9922 309.23C12.7645 309.739 11.448 310 10.1191 310C8.79044 310 7.47463 309.739 6.24707 309.23C5.01937 308.722 3.90351 307.976 2.96387 307.036C2.02445 306.097 1.27896 304.981 0.770508 303.754C0.338063 302.71 0.0858507 301.602 0.0195312 300.477H0V285ZM27.1191 285C28.4478 285 29.7636 285.261 30.9912 285.77C32.2189 286.278 33.3348 287.024 34.2744 287.964C35.2138 288.903 35.9593 290.019 36.4678 291.246C36.9002 292.29 37.1524 293.398 37.2188 294.523H37.2373V310C34.9363 310 33.0713 308.134 33.0713 305.833V295.119H33.0645C33.0645 294.338 32.9101 293.565 32.6113 292.844C32.3126 292.123 31.8751 291.467 31.3232 290.915C30.7711 290.363 30.1149 289.925 29.3936 289.626C28.6724 289.327 27.8997 289.173 27.1191 289.173C26.3384 289.173 25.565 289.327 24.8438 289.626C24.1224 289.925 23.4671 290.363 22.915 290.915C22.363 291.467 21.9248 292.122 21.626 292.844C21.3272 293.565 21.1729 294.338 21.1729 295.119H17C17 293.79 17.261 292.474 17.7695 291.246C18.2781 290.018 19.0242 288.904 19.9639 287.964C20.9035 287.024 22.0184 286.278 23.2461 285.77C24.4738 285.261 25.7903 285 27.1191 285ZM43 285C45.301 285 47.166 286.866 47.166 289.167V299.881H47.1729C47.1729 300.662 47.3272 301.435 47.626 302.156C47.9247 302.877 48.3622 303.533 48.9141 304.085C49.4662 304.637 50.1224 305.075 50.8438 305.374C51.5649 305.673 52.3376 305.827 53.1182 305.827C53.8989 305.827 54.6723 305.673 55.3936 305.374C56.1149 305.075 56.7702 304.637 57.3223 304.085C57.8744 303.533 58.3125 302.878 58.6113 302.156C58.9101 301.435 59.0645 300.662 59.0645 299.881H63.2373C63.2373 301.21 62.9763 302.526 62.4678 303.754C61.9592 304.982 61.2131 306.096 60.2734 307.036C59.3338 307.976 58.2189 308.722 56.9912 309.23C55.7635 309.739 54.447 310 53.1182 310C51.7895 310 50.4737 309.739 49.2461 309.23C48.0184 308.722 46.9025 307.976 45.9629 307.036C45.0235 306.097 44.278 304.981 43.7695 303.754C43.3371 302.71 43.0849 301.602 43.0186 300.477H43V285ZM70.1182 285C71.4469 285 72.7627 285.261 73.9902 285.77C75.2179 286.278 76.3338 287.024 77.2734 287.964C78.2129 288.903 78.9584 290.019 79.4668 291.246C79.8992 292.29 80.1515 293.398 80.2178 294.523H80.2373V310C77.9361 310 76.0703 308.134 76.0703 305.833V295.119H76.0635C76.0635 294.338 75.9091 293.565 75.6104 292.844C75.3116 292.123 74.8741 291.467 74.3223 290.915C73.7702 290.363 73.1139 289.925 72.3926 289.626C71.6714 289.327 70.8987 289.173 70.1182 289.173C69.3374 289.173 68.5641 289.327 67.8428 289.626C67.1214 289.925 66.4662 290.363 65.9141 290.915C65.362 291.467 64.9238 292.122 64.625 292.844C64.3263 293.565 64.1719 294.338 64.1719 295.119H59.999C59.999 293.79 60.26 292.474 60.7686 291.246C61.2771 290.018 62.0233 288.904 62.9629 287.964C63.9025 287.024 65.0174 286.278 66.2451 285.77C67.4728 285.261 68.7893 285 70.1182 285ZM86 285C88.3012 285 90.167 286.866 90.167 289.167V299.881H90.1738C90.1738 300.662 90.3282 301.435 90.627 302.156C90.9257 302.877 91.3632 303.533 91.915 304.085C92.4671 304.637 93.1234 305.075 93.8447 305.374C94.5659 305.673 95.3386 305.827 96.1191 305.827C96.8999 305.827 97.6732 305.673 98.3945 305.374C99.1159 305.075 99.7711 304.637 100.323 304.085C100.875 303.533 101.314 302.878 101.612 302.156C101.911 301.435 102.065 300.662 102.065 299.881H106.238C106.238 301.21 105.977 302.526 105.469 303.754C104.96 304.982 104.214 306.096 103.274 307.036C102.335 307.976 101.22 308.722 99.9922 309.23C98.7645 309.739 97.448 310 96.1191 310C94.7904 310 93.4746 309.739 92.2471 309.23C91.0194 308.722 89.9035 307.976 88.9639 307.036C88.0245 306.097 87.279 304.981 86.7705 303.754C86.3381 302.71 86.0859 301.602 86.0195 300.477H86V285ZM113.119 285C114.448 285 115.764 285.261 116.991 285.77C118.219 286.278 119.335 287.024 120.274 287.964C121.214 288.903 121.959 290.019 122.468 291.246C122.9 292.29 123.152 293.398 123.219 294.523H123.237V310C120.936 310 119.071 308.134 119.071 305.833V295.119H119.064C119.064 294.338 118.91 293.565 118.611 292.844C118.313 292.123 117.875 291.467 117.323 290.915C116.771 290.363 116.115 289.925 115.394 289.626C114.672 289.327 113.9 289.173 113.119 289.173C112.338 289.173 111.565 289.327 110.844 289.626C110.122 289.925 109.467 290.363 108.915 290.915C108.363 291.467 107.925 292.122 107.626 292.844C107.327 293.565 107.173 294.338 107.173 295.119H103C103 293.79 103.261 292.474 103.77 291.246C104.278 290.018 105.024 288.904 105.964 287.964C106.903 287.024 108.018 286.278 109.246 285.77C110.474 285.261 111.79 285 113.119 285ZM129 285C131.301 285 133.166 286.866 133.166 289.167V299.881H133.173C133.173 300.662 133.327 301.435 133.626 302.156C133.925 302.877 134.362 303.533 134.914 304.085C135.466 304.637 136.122 305.075 136.844 305.374C137.565 305.673 138.338 305.827 139.118 305.827C139.899 305.827 140.672 305.673 141.394 305.374C142.115 305.075 142.77 304.637 143.322 304.085C143.874 303.533 144.313 302.878 144.611 302.156C144.91 301.435 145.064 300.662 145.064 299.881H149.237C149.237 301.21 148.976 302.526 148.468 303.754C147.959 304.982 147.213 306.096 146.273 307.036C145.334 307.976 144.219 308.722 142.991 309.23C141.764 309.739 140.447 310 139.118 310C137.789 310 136.474 309.739 135.246 309.23C134.018 308.722 132.903 307.976 131.963 307.036C131.023 306.097 130.278 304.981 129.77 303.754C129.337 302.71 129.085 301.602 129.019 300.477H129V285ZM156.118 285C157.447 285 158.763 285.261 159.99 285.77C161.218 286.278 162.334 287.024 163.273 287.964C164.213 288.903 164.958 290.019 165.467 291.246C165.899 292.29 166.151 293.398 166.218 294.523H166.237V310C163.936 310 162.07 308.134 162.07 305.833V295.119H162.063C162.063 294.338 161.909 293.565 161.61 292.844C161.312 292.123 160.874 291.467 160.322 290.915C159.77 290.363 159.114 289.925 158.393 289.626C157.671 289.327 156.899 289.173 156.118 289.173C155.337 289.173 154.564 289.327 153.843 289.626C153.121 289.925 152.466 290.363 151.914 290.915C151.362 291.467 150.924 292.122 150.625 292.844C150.326 293.565 150.172 294.338 150.172 295.119H145.999C145.999 293.79 146.26 292.474 146.769 291.246C147.277 290.018 148.023 288.904 148.963 287.964C149.903 287.024 151.017 286.278 152.245 285.77C153.473 285.261 154.789 285 156.118 285ZM0 255C2.30097 255 4.16602 256.866 4.16602 259.167V269.881H4.17285C4.17285 270.662 4.32723 271.435 4.62598 272.156C4.92469 272.877 5.36218 273.533 5.91406 274.085C6.46616 274.637 7.12241 275.075 7.84375 275.374C8.56489 275.673 9.33763 275.827 10.1182 275.827C10.8989 275.827 11.6723 275.673 12.3936 275.374C13.1149 275.075 13.7702 274.637 14.3223 274.085C14.8744 273.533 15.3125 272.878 15.6113 272.156C15.9101 271.435 16.0645 270.662 16.0645 269.881H20.2373C20.2373 271.21 19.9763 272.526 19.4678 273.754C18.9592 274.982 18.2131 276.096 17.2734 277.036C16.3338 277.976 15.2189 278.722 13.9912 279.23C12.7635 279.739 11.447 280 10.1182 280C8.78946 280 7.47366 279.739 6.24609 279.23C5.01839 278.722 3.90253 277.976 2.96289 277.036C2.02348 276.097 1.27798 274.981 0.769531 273.754C0.337086 272.71 0.0848741 271.602 0.0185547 270.477H0V255ZM27.1182 255C28.4469 255 29.7627 255.261 30.9902 255.77C32.2179 256.278 33.3338 257.024 34.2734 257.964C35.2128 258.903 35.9583 260.019 36.4668 261.246C36.8992 262.29 37.1515 263.398 37.2178 264.523H37.2373V280C34.9361 280 33.0703 278.134 33.0703 275.833V265.119H33.0635C33.0635 264.338 32.9091 263.565 32.6104 262.844C32.3116 262.123 31.8741 261.467 31.3223 260.915C30.7702 260.363 30.1139 259.925 29.3926 259.626C28.6714 259.327 27.8987 259.173 27.1182 259.173C26.3374 259.173 25.5641 259.327 24.8428 259.626C24.1214 259.925 23.4662 260.363 22.9141 260.915C22.362 261.467 21.9238 262.122 21.625 262.844C21.3263 263.565 21.1719 264.338 21.1719 265.119H16.999C16.999 263.79 17.26 262.474 17.7686 261.246C18.2771 260.018 19.0233 258.904 19.9629 257.964C20.9025 257.024 22.0174 256.278 23.2451 255.77C24.4728 255.261 25.7893 255 27.1182 255ZM43 255C45.3012 255 47.167 256.866 47.167 259.167V269.881H47.1738C47.1738 270.662 47.3282 271.435 47.627 272.156C47.9257 272.877 48.3632 273.533 48.915 274.085C49.4671 274.637 50.1234 275.075 50.8447 275.374C51.5659 275.673 52.3386 275.827 53.1191 275.827C53.8999 275.827 54.6732 275.673 55.3945 275.374C56.1159 275.075 56.7711 274.637 57.3232 274.085C57.8753 273.533 58.3135 272.878 58.6123 272.156C58.911 271.435 59.0654 270.662 59.0654 269.881H63.2383C63.2383 271.21 62.9773 272.526 62.4688 273.754C61.9602 274.982 61.214 276.096 60.2744 277.036C59.3348 277.976 58.2199 278.722 56.9922 279.23C55.7645 279.739 54.448 280 53.1191 280C51.7904 280 50.4746 279.739 49.2471 279.23C48.0194 278.722 46.9035 277.976 45.9639 277.036C45.0245 276.097 44.279 274.981 43.7705 273.754C43.3381 272.71 43.0858 271.602 43.0195 270.477H43V255ZM70.1191 255C71.4478 255 72.7636 255.261 73.9912 255.77C75.2189 256.278 76.3348 257.024 77.2744 257.964C78.2138 258.903 78.9593 260.019 79.4678 261.246C79.9002 262.29 80.1524 263.398 80.2188 264.523H80.2373V280C77.9363 280 76.0713 278.134 76.0713 275.833V265.119H76.0645C76.0645 264.338 75.9101 263.565 75.6113 262.844C75.3126 262.123 74.8751 261.467 74.3232 260.915C73.7711 260.363 73.1149 259.925 72.3936 259.626C71.6724 259.327 70.8997 259.173 70.1191 259.173C69.3384 259.173 68.565 259.327 67.8438 259.626C67.1224 259.925 66.4671 260.363 65.915 260.915C65.363 261.467 64.9248 262.122 64.626 262.844C64.3272 263.565 64.1729 264.338 64.1729 265.119H60C60 263.79 60.261 262.474 60.7695 261.246C61.2781 260.018 62.0242 258.904 62.9639 257.964C63.9035 257.024 65.0184 256.278 66.2461 255.77C67.4738 255.261 68.7903 255 70.1191 255ZM86 255C88.301 255 90.166 256.866 90.166 259.167V269.881H90.1729C90.1729 270.662 90.3272 271.435 90.626 272.156C90.9247 272.877 91.3622 273.533 91.9141 274.085C92.4662 274.637 93.1224 275.075 93.8438 275.374C94.5649 275.673 95.3376 275.827 96.1182 275.827C96.8989 275.827 97.6723 275.673 98.3936 275.374C99.1149 275.075 99.7702 274.637 100.322 274.085C100.874 273.533 101.313 272.878 101.611 272.156C101.91 271.435 102.064 270.662 102.064 269.881H106.237C106.237 271.21 105.976 272.526 105.468 273.754C104.959 274.982 104.213 276.096 103.273 277.036C102.334 277.976 101.219 278.722 99.9912 279.23C98.7635 279.739 97.447 280 96.1182 280C94.7895 280 93.4737 279.739 92.2461 279.23C91.0184 278.722 89.9025 277.976 88.9629 277.036C88.0235 276.097 87.278 274.981 86.7695 273.754C86.3371 272.71 86.0849 271.602 86.0186 270.477H86V255ZM113.118 255C114.447 255 115.763 255.261 116.99 255.77C118.218 256.278 119.334 257.024 120.273 257.964C121.213 258.903 121.958 260.019 122.467 261.246C122.899 262.29 123.151 263.398 123.218 264.523H123.237V280C120.936 280 119.07 278.134 119.07 275.833V265.119H119.063C119.063 264.338 118.909 263.565 118.61 262.844C118.312 262.123 117.874 261.467 117.322 260.915C116.77 260.363 116.114 259.925 115.393 259.626C114.671 259.327 113.899 259.173 113.118 259.173C112.337 259.173 111.564 259.327 110.843 259.626C110.121 259.925 109.466 260.363 108.914 260.915C108.362 261.467 107.924 262.122 107.625 262.844C107.326 263.565 107.172 264.338 107.172 265.119H102.999C102.999 263.79 103.26 262.474 103.769 261.246C104.277 260.018 105.023 258.904 105.963 257.964C106.903 257.024 108.017 256.278 109.245 255.77C110.473 255.261 111.789 255 113.118 255ZM129 255C131.301 255 133.167 256.866 133.167 259.167V269.881H133.174C133.174 270.662 133.328 271.435 133.627 272.156C133.926 272.877 134.363 273.533 134.915 274.085C135.467 274.637 136.123 275.075 136.845 275.374C137.566 275.673 138.339 275.827 139.119 275.827C139.9 275.827 140.673 275.673 141.395 275.374C142.116 275.075 142.771 274.637 143.323 274.085C143.875 273.533 144.314 272.878 144.612 272.156C144.911 271.435 145.065 270.662 145.065 269.881H149.238C149.238 271.21 148.977 272.526 148.469 273.754C147.96 274.982 147.214 276.096 146.274 277.036C145.335 277.976 144.22 278.722 142.992 279.23C141.764 279.739 140.448 280 139.119 280C137.79 280 136.475 279.739 135.247 279.23C134.019 278.722 132.904 277.976 131.964 277.036C131.024 276.097 130.279 274.981 129.771 273.754C129.338 272.71 129.086 271.602 129.02 270.477H129V255ZM156.119 255C157.448 255 158.764 255.261 159.991 255.77C161.219 256.278 162.335 257.024 163.274 257.964C164.214 258.903 164.959 260.019 165.468 261.246C165.9 262.29 166.152 263.398 166.219 264.523H166.237V280C163.936 280 162.071 278.134 162.071 275.833V265.119H162.064C162.064 264.338 161.91 263.565 161.611 262.844C161.313 262.123 160.875 261.467 160.323 260.915C159.771 260.363 159.115 259.925 158.394 259.626C157.672 259.327 156.9 259.173 156.119 259.173C155.338 259.173 154.565 259.327 153.844 259.626C153.122 259.925 152.467 260.363 151.915 260.915C151.363 261.467 150.925 262.122 150.626 262.844C150.327 263.565 150.173 264.338 150.173 265.119H146C146 263.79 146.261 262.474 146.77 261.246C147.278 260.018 148.024 258.904 148.964 257.964C149.903 257.024 151.018 256.278 152.246 255.77C153.474 255.261 154.79 255 156.119 255ZM0 225C2.3012 225 4.16699 226.866 4.16699 229.167V239.881H4.17383C4.17383 240.662 4.3282 241.435 4.62695 242.156C4.92566 242.877 5.36316 243.533 5.91504 244.085C6.46713 244.637 7.12338 245.075 7.84473 245.374C8.56586 245.673 9.3386 245.827 10.1191 245.827C10.8999 245.827 11.6732 245.673 12.3945 245.374C13.1159 245.075 13.7711 244.637 14.3232 244.085C14.8753 243.533 15.3135 242.878 15.6123 242.156C15.911 241.435 16.0654 240.662 16.0654 239.881H20.2383C20.2383 241.21 19.9773 242.526 19.4688 243.754C18.9602 244.982 18.214 246.096 17.2744 247.036C16.3348 247.976 15.2199 248.722 13.9922 249.23C12.7645 249.739 11.448 250 10.1191 250C8.79044 250 7.47463 249.739 6.24707 249.23C5.01937 248.722 3.90351 247.976 2.96387 247.036C2.02445 246.097 1.27896 244.981 0.770508 243.754C0.338063 242.71 0.0858507 241.602 0.0195312 240.477H0V225ZM27.1191 225C28.4478 225 29.7636 225.261 30.9912 225.77C32.2189 226.278 33.3348 227.024 34.2744 227.964C35.2138 228.903 35.9593 230.019 36.4678 231.246C36.9002 232.29 37.1524 233.398 37.2188 234.523H37.2373V250C34.9363 250 33.0713 248.134 33.0713 245.833V235.119H33.0645C33.0645 234.338 32.9101 233.565 32.6113 232.844C32.3126 232.123 31.8751 231.467 31.3232 230.915C30.7711 230.363 30.1149 229.925 29.3936 229.626C28.6724 229.327 27.8997 229.173 27.1191 229.173C26.3384 229.173 25.565 229.327 24.8438 229.626C24.1224 229.925 23.4671 230.363 22.915 230.915C22.363 231.467 21.9248 232.122 21.626 232.844C21.3272 233.565 21.1729 234.338 21.1729 235.119H17C17 233.79 17.261 232.474 17.7695 231.246C18.2781 230.018 19.0242 228.904 19.9639 227.964C20.9035 227.024 22.0184 226.278 23.2461 225.77C24.4738 225.261 25.7903 225 27.1191 225ZM43 225C45.301 225 47.166 226.866 47.166 229.167V239.881H47.1729C47.1729 240.662 47.3272 241.435 47.626 242.156C47.9247 242.877 48.3622 243.533 48.9141 244.085C49.4662 244.637 50.1224 245.075 50.8438 245.374C51.5649 245.673 52.3376 245.827 53.1182 245.827C53.8989 245.827 54.6723 245.673 55.3936 245.374C56.1149 245.075 56.7702 244.637 57.3223 244.085C57.8744 243.533 58.3125 242.878 58.6113 242.156C58.9101 241.435 59.0645 240.662 59.0645 239.881H63.2373C63.2373 241.21 62.9763 242.526 62.4678 243.754C61.9592 244.982 61.2131 246.096 60.2734 247.036C59.3338 247.976 58.2189 248.722 56.9912 249.23C55.7635 249.739 54.447 250 53.1182 250C51.7895 250 50.4737 249.739 49.2461 249.23C48.0184 248.722 46.9025 247.976 45.9629 247.036C45.0235 246.097 44.278 244.981 43.7695 243.754C43.3371 242.71 43.0849 241.602 43.0186 240.477H43V225ZM70.1182 225C71.4469 225 72.7627 225.261 73.9902 225.77C75.2179 226.278 76.3338 227.024 77.2734 227.964C78.2129 228.903 78.9584 230.019 79.4668 231.246C79.8992 232.29 80.1515 233.398 80.2178 234.523H80.2373V250C77.9361 250 76.0703 248.134 76.0703 245.833V235.119H76.0635C76.0635 234.338 75.9091 233.565 75.6104 232.844C75.3116 232.123 74.8741 231.467 74.3223 230.915C73.7702 230.363 73.1139 229.925 72.3926 229.626C71.6714 229.327 70.8987 229.173 70.1182 229.173C69.3374 229.173 68.5641 229.327 67.8428 229.626C67.1214 229.925 66.4662 230.363 65.9141 230.915C65.362 231.467 64.9238 232.122 64.625 232.844C64.3263 233.565 64.1719 234.338 64.1719 235.119H59.999C59.999 233.79 60.26 232.474 60.7686 231.246C61.2771 230.018 62.0233 228.904 62.9629 227.964C63.9025 227.024 65.0174 226.278 66.2451 225.77C67.4728 225.261 68.7893 225 70.1182 225ZM86 225C88.3012 225 90.167 226.866 90.167 229.167V239.881H90.1738C90.1738 240.662 90.3282 241.435 90.627 242.156C90.9257 242.877 91.3632 243.533 91.915 244.085C92.4671 244.637 93.1234 245.075 93.8447 245.374C94.5659 245.673 95.3386 245.827 96.1191 245.827C96.8999 245.827 97.6732 245.673 98.3945 245.374C99.1159 245.075 99.7711 244.637 100.323 244.085C100.875 243.533 101.314 242.878 101.612 242.156C101.911 241.435 102.065 240.662 102.065 239.881H106.238C106.238 241.21 105.977 242.526 105.469 243.754C104.96 244.982 104.214 246.096 103.274 247.036C102.335 247.976 101.22 248.722 99.9922 249.23C98.7645 249.739 97.448 250 96.1191 250C94.7904 250 93.4746 249.739 92.2471 249.23C91.0194 248.722 89.9035 247.976 88.9639 247.036C88.0245 246.097 87.279 244.981 86.7705 243.754C86.3381 242.71 86.0859 241.602 86.0195 240.477H86V225ZM113.119 225C114.448 225 115.764 225.261 116.991 225.77C118.219 226.278 119.335 227.024 120.274 227.964C121.214 228.903 121.959 230.019 122.468 231.246C122.9 232.29 123.152 233.398 123.219 234.523H123.237V250C120.936 250 119.071 248.134 119.071 245.833V235.119H119.064C119.064 234.338 118.91 233.565 118.611 232.844C118.313 232.123 117.875 231.467 117.323 230.915C116.771 230.363 116.115 229.925 115.394 229.626C114.672 229.327 113.9 229.173 113.119 229.173C112.338 229.173 111.565 229.327 110.844 229.626C110.122 229.925 109.467 230.363 108.915 230.915C108.363 231.467 107.925 232.122 107.626 232.844C107.327 233.565 107.173 234.338 107.173 235.119H103C103 233.79 103.261 232.474 103.77 231.246C104.278 230.018 105.024 228.904 105.964 227.964C106.903 227.024 108.018 226.278 109.246 225.77C110.474 225.261 111.79 225 113.119 225ZM129 225C131.301 225 133.166 226.866 133.166 229.167V239.881H133.173C133.173 240.662 133.327 241.435 133.626 242.156C133.925 242.877 134.362 243.533 134.914 244.085C135.466 244.637 136.122 245.075 136.844 245.374C137.565 245.673 138.338 245.827 139.118 245.827C139.899 245.827 140.672 245.673 141.394 245.374C142.115 245.075 142.77 244.637 143.322 244.085C143.874 243.533 144.313 242.878 144.611 242.156C144.91 241.435 145.064 240.662 145.064 239.881H149.237C149.237 241.21 148.976 242.526 148.468 243.754C147.959 244.982 147.213 246.096 146.273 247.036C145.334 247.976 144.219 248.722 142.991 249.23C141.764 249.739 140.447 250 139.118 250C137.789 250 136.474 249.739 135.246 249.23C134.018 248.722 132.903 247.976 131.963 247.036C131.023 246.097 130.278 244.981 129.77 243.754C129.337 242.71 129.085 241.602 129.019 240.477H129V225ZM156.118 225C157.447 225 158.763 225.261 159.99 225.77C161.218 226.278 162.334 227.024 163.273 227.964C164.213 228.903 164.958 230.019 165.467 231.246C165.899 232.29 166.151 233.398 166.218 234.523H166.237V250C163.936 250 162.07 248.134 162.07 245.833V235.119H162.063C162.063 234.338 161.909 233.565 161.61 232.844C161.312 232.123 160.874 231.467 160.322 230.915C159.77 230.363 159.114 229.925 158.393 229.626C157.671 229.327 156.899 229.173 156.118 229.173C155.337 229.173 154.564 229.327 153.843 229.626C153.121 229.925 152.466 230.363 151.914 230.915C151.362 231.467 150.924 232.122 150.625 232.844C150.326 233.565 150.172 234.338 150.172 235.119H145.999C145.999 233.79 146.26 232.474 146.769 231.246C147.277 230.018 148.023 228.904 148.963 227.964C149.903 227.024 151.017 226.278 152.245 225.77C153.473 225.261 154.789 225 156.118 225ZM0 195C2.30097 195 4.16602 196.866 4.16602 199.167V209.881H4.17285C4.17285 210.662 4.32723 211.435 4.62598 212.156C4.92469 212.877 5.36218 213.533 5.91406 214.085C6.46616 214.637 7.12241 215.075 7.84375 215.374C8.56489 215.673 9.33763 215.827 10.1182 215.827C10.8989 215.827 11.6723 215.673 12.3936 215.374C13.1149 215.075 13.7702 214.637 14.3223 214.085C14.8744 213.533 15.3125 212.878 15.6113 212.156C15.9101 211.435 16.0645 210.662 16.0645 209.881H20.2373C20.2373 211.21 19.9763 212.526 19.4678 213.754C18.9592 214.982 18.2131 216.096 17.2734 217.036C16.3338 217.976 15.2189 218.722 13.9912 219.23C12.7635 219.739 11.447 220 10.1182 220C8.78946 220 7.47366 219.739 6.24609 219.23C5.01839 218.722 3.90253 217.976 2.96289 217.036C2.02348 216.097 1.27798 214.981 0.769531 213.754C0.337086 212.71 0.0848741 211.602 0.0185547 210.477H0V195ZM27.1182 195C28.4469 195 29.7627 195.261 30.9902 195.77C32.2179 196.278 33.3338 197.024 34.2734 197.964C35.2128 198.903 35.9583 200.019 36.4668 201.246C36.8992 202.29 37.1515 203.398 37.2178 204.523H37.2373V220C34.9361 220 33.0703 218.134 33.0703 215.833V205.119H33.0635C33.0635 204.338 32.9091 203.565 32.6104 202.844C32.3116 202.123 31.8741 201.467 31.3223 200.915C30.7702 200.363 30.1139 199.925 29.3926 199.626C28.6714 199.327 27.8987 199.173 27.1182 199.173C26.3374 199.173 25.5641 199.327 24.8428 199.626C24.1214 199.925 23.4662 200.363 22.9141 200.915C22.362 201.467 21.9238 202.122 21.625 202.844C21.3263 203.565 21.1719 204.338 21.1719 205.119H16.999C16.999 203.79 17.26 202.474 17.7686 201.246C18.2771 200.018 19.0233 198.904 19.9629 197.964C20.9025 197.024 22.0174 196.278 23.2451 195.77C24.4728 195.261 25.7893 195 27.1182 195ZM43 195C45.3012 195 47.167 196.866 47.167 199.167V209.881H47.1738C47.1738 210.662 47.3282 211.435 47.627 212.156C47.9257 212.877 48.3632 213.533 48.915 214.085C49.4671 214.637 50.1234 215.075 50.8447 215.374C51.5659 215.673 52.3386 215.827 53.1191 215.827C53.8999 215.827 54.6732 215.673 55.3945 215.374C56.1159 215.075 56.7711 214.637 57.3232 214.085C57.8753 213.533 58.3135 212.878 58.6123 212.156C58.911 211.435 59.0654 210.662 59.0654 209.881H63.2383C63.2383 211.21 62.9773 212.526 62.4688 213.754C61.9602 214.982 61.214 216.096 60.2744 217.036C59.3348 217.976 58.2199 218.722 56.9922 219.23C55.7645 219.739 54.448 220 53.1191 220C51.7904 220 50.4746 219.739 49.2471 219.23C48.0194 218.722 46.9035 217.976 45.9639 217.036C45.0245 216.097 44.279 214.981 43.7705 213.754C43.3381 212.71 43.0858 211.602 43.0195 210.477H43V195ZM70.1191 195C71.4478 195 72.7636 195.261 73.9912 195.77C75.2189 196.278 76.3348 197.024 77.2744 197.964C78.2138 198.903 78.9593 200.019 79.4678 201.246C79.9002 202.29 80.1524 203.398 80.2188 204.523H80.2373V220C77.9363 220 76.0713 218.134 76.0713 215.833V205.119H76.0645C76.0645 204.338 75.9101 203.565 75.6113 202.844C75.3126 202.123 74.8751 201.467 74.3232 200.915C73.7711 200.363 73.1149 199.925 72.3936 199.626C71.6724 199.327 70.8997 199.173 70.1191 199.173C69.3384 199.173 68.565 199.327 67.8438 199.626C67.1224 199.925 66.4671 200.363 65.915 200.915C65.363 201.467 64.9248 202.122 64.626 202.844C64.3272 203.565 64.1729 204.338 64.1729 205.119H60C60 203.79 60.261 202.474 60.7695 201.246C61.2781 200.018 62.0242 198.904 62.9639 197.964C63.9035 197.024 65.0184 196.278 66.2461 195.77C67.4738 195.261 68.7903 195 70.1191 195ZM86 195C88.301 195 90.166 196.866 90.166 199.167V209.881H90.1729C90.1729 210.662 90.3272 211.435 90.626 212.156C90.9247 212.877 91.3622 213.533 91.9141 214.085C92.4662 214.637 93.1224 215.075 93.8438 215.374C94.5649 215.673 95.3376 215.827 96.1182 215.827C96.8989 215.827 97.6723 215.673 98.3936 215.374C99.1149 215.075 99.7702 214.637 100.322 214.085C100.874 213.533 101.313 212.878 101.611 212.156C101.91 211.435 102.064 210.662 102.064 209.881H106.237C106.237 211.21 105.976 212.526 105.468 213.754C104.959 214.982 104.213 216.096 103.273 217.036C102.334 217.976 101.219 218.722 99.9912 219.23C98.7635 219.739 97.447 220 96.1182 220C94.7895 220 93.4737 219.739 92.2461 219.23C91.0184 218.722 89.9025 217.976 88.9629 217.036C88.0235 216.097 87.278 214.981 86.7695 213.754C86.3371 212.71 86.0849 211.602 86.0186 210.477H86V195ZM113.118 195C114.447 195 115.763 195.261 116.99 195.77C118.218 196.278 119.334 197.024 120.273 197.964C121.213 198.903 121.958 200.019 122.467 201.246C122.899 202.29 123.151 203.398 123.218 204.523H123.237V220C120.936 220 119.07 218.134 119.07 215.833V205.119H119.063C119.063 204.338 118.909 203.565 118.61 202.844C118.312 202.123 117.874 201.467 117.322 200.915C116.77 200.363 116.114 199.925 115.393 199.626C114.671 199.327 113.899 199.173 113.118 199.173C112.337 199.173 111.564 199.327 110.843 199.626C110.121 199.925 109.466 200.363 108.914 200.915C108.362 201.467 107.924 202.122 107.625 202.844C107.326 203.565 107.172 204.338 107.172 205.119H102.999C102.999 203.79 103.26 202.474 103.769 201.246C104.277 200.018 105.023 198.904 105.963 197.964C106.903 197.024 108.017 196.278 109.245 195.77C110.473 195.261 111.789 195 113.118 195ZM129 195C131.301 195 133.167 196.866 133.167 199.167V209.881H133.174C133.174 210.662 133.328 211.435 133.627 212.156C133.926 212.877 134.363 213.533 134.915 214.085C135.467 214.637 136.123 215.075 136.845 215.374C137.566 215.673 138.339 215.827 139.119 215.827C139.9 215.827 140.673 215.673 141.395 215.374C142.116 215.075 142.771 214.637 143.323 214.085C143.875 213.533 144.314 212.878 144.612 212.156C144.911 211.435 145.065 210.662 145.065 209.881H149.238C149.238 211.21 148.977 212.526 148.469 213.754C147.96 214.982 147.214 216.096 146.274 217.036C145.335 217.976 144.22 218.722 142.992 219.23C141.764 219.739 140.448 220 139.119 220C137.79 220 136.475 219.739 135.247 219.23C134.019 218.722 132.904 217.976 131.964 217.036C131.024 216.097 130.279 214.981 129.771 213.754C129.338 212.71 129.086 211.602 129.02 210.477H129V195ZM156.119 195C157.448 195 158.764 195.261 159.991 195.77C161.219 196.278 162.335 197.024 163.274 197.964C164.214 198.903 164.959 200.019 165.468 201.246C165.9 202.29 166.152 203.398 166.219 204.523H166.237V220C163.936 220 162.071 218.134 162.071 215.833V205.119H162.064C162.064 204.338 161.91 203.565 161.611 202.844C161.313 202.123 160.875 201.467 160.323 200.915C159.771 200.363 159.115 199.925 158.394 199.626C157.672 199.327 156.9 199.173 156.119 199.173C155.338 199.173 154.565 199.327 153.844 199.626C153.122 199.925 152.467 200.363 151.915 200.915C151.363 201.467 150.925 202.122 150.626 202.844C150.327 203.565 150.173 204.338 150.173 205.119H146C146 203.79 146.261 202.474 146.77 201.246C147.278 200.018 148.024 198.904 148.964 197.964C149.903 197.024 151.018 196.278 152.246 195.77C153.474 195.261 154.79 195 156.119 195ZM0 165C2.3012 165 4.16699 166.866 4.16699 169.167V179.881H4.17383C4.17383 180.662 4.3282 181.435 4.62695 182.156C4.92566 182.877 5.36316 183.533 5.91504 184.085C6.46713 184.637 7.12338 185.075 7.84473 185.374C8.56586 185.673 9.3386 185.827 10.1191 185.827C10.8999 185.827 11.6732 185.673 12.3945 185.374C13.1159 185.075 13.7711 184.637 14.3232 184.085C14.8753 183.533 15.3135 182.878 15.6123 182.156C15.911 181.435 16.0654 180.662 16.0654 179.881H20.2383C20.2383 181.21 19.9773 182.526 19.4688 183.754C18.9602 184.982 18.214 186.096 17.2744 187.036C16.3348 187.976 15.2199 188.722 13.9922 189.23C12.7645 189.739 11.448 190 10.1191 190C8.79044 190 7.47463 189.739 6.24707 189.23C5.01937 188.722 3.90351 187.976 2.96387 187.036C2.02445 186.097 1.27896 184.981 0.770508 183.754C0.338063 182.71 0.0858507 181.602 0.0195312 180.477H0V165ZM27.1191 165C28.4478 165 29.7636 165.261 30.9912 165.77C32.2189 166.278 33.3348 167.024 34.2744 167.964C35.2138 168.903 35.9593 170.019 36.4678 171.246C36.9002 172.29 37.1524 173.398 37.2188 174.523H37.2373V190C34.9363 190 33.0713 188.134 33.0713 185.833V175.119H33.0645C33.0645 174.338 32.9101 173.565 32.6113 172.844C32.3126 172.123 31.8751 171.467 31.3232 170.915C30.7711 170.363 30.1149 169.925 29.3936 169.626C28.6724 169.327 27.8997 169.173 27.1191 169.173C26.3384 169.173 25.565 169.327 24.8438 169.626C24.1224 169.925 23.4671 170.363 22.915 170.915C22.363 171.467 21.9248 172.122 21.626 172.844C21.3272 173.565 21.1729 174.338 21.1729 175.119H17C17 173.79 17.261 172.474 17.7695 171.246C18.2781 170.018 19.0242 168.904 19.9639 167.964C20.9035 167.024 22.0184 166.278 23.2461 165.77C24.4738 165.261 25.7903 165 27.1191 165ZM43 165C45.301 165 47.166 166.866 47.166 169.167V179.881H47.1729C47.1729 180.662 47.3272 181.435 47.626 182.156C47.9247 182.877 48.3622 183.533 48.9141 184.085C49.4662 184.637 50.1224 185.075 50.8438 185.374C51.5649 185.673 52.3376 185.827 53.1182 185.827C53.8989 185.827 54.6723 185.673 55.3936 185.374C56.1149 185.075 56.7702 184.637 57.3223 184.085C57.8744 183.533 58.3125 182.878 58.6113 182.156C58.9101 181.435 59.0645 180.662 59.0645 179.881H63.2373C63.2373 181.21 62.9763 182.526 62.4678 183.754C61.9592 184.982 61.2131 186.096 60.2734 187.036C59.3338 187.976 58.2189 188.722 56.9912 189.23C55.7635 189.739 54.447 190 53.1182 190C51.7895 190 50.4737 189.739 49.2461 189.23C48.0184 188.722 46.9025 187.976 45.9629 187.036C45.0235 186.097 44.278 184.981 43.7695 183.754C43.3371 182.71 43.0849 181.602 43.0186 180.477H43V165ZM70.1182 165C71.4469 165 72.7627 165.261 73.9902 165.77C75.2179 166.278 76.3338 167.024 77.2734 167.964C78.2129 168.903 78.9584 170.019 79.4668 171.246C79.8992 172.29 80.1515 173.398 80.2178 174.523H80.2373V190C77.9361 190 76.0703 188.134 76.0703 185.833V175.119H76.0635C76.0635 174.338 75.9091 173.565 75.6104 172.844C75.3116 172.123 74.8741 171.467 74.3223 170.915C73.7702 170.363 73.1139 169.925 72.3926 169.626C71.6714 169.327 70.8987 169.173 70.1182 169.173C69.3374 169.173 68.5641 169.327 67.8428 169.626C67.1214 169.925 66.4662 170.363 65.9141 170.915C65.362 171.467 64.9238 172.122 64.625 172.844C64.3263 173.565 64.1719 174.338 64.1719 175.119H59.999C59.999 173.79 60.26 172.474 60.7686 171.246C61.2771 170.018 62.0233 168.904 62.9629 167.964C63.9025 167.024 65.0174 166.278 66.2451 165.77C67.4728 165.261 68.7893 165 70.1182 165ZM86 165C88.3012 165 90.167 166.866 90.167 169.167V179.881H90.1738C90.1738 180.662 90.3282 181.435 90.627 182.156C90.9257 182.877 91.3632 183.533 91.915 184.085C92.4671 184.637 93.1234 185.075 93.8447 185.374C94.5659 185.673 95.3386 185.827 96.1191 185.827C96.8999 185.827 97.6732 185.673 98.3945 185.374C99.1159 185.075 99.7711 184.637 100.323 184.085C100.875 183.533 101.314 182.878 101.612 182.156C101.911 181.435 102.065 180.662 102.065 179.881H106.238C106.238 181.21 105.977 182.526 105.469 183.754C104.96 184.982 104.214 186.096 103.274 187.036C102.335 187.976 101.22 188.722 99.9922 189.23C98.7645 189.739 97.448 190 96.1191 190C94.7904 190 93.4746 189.739 92.2471 189.23C91.0194 188.722 89.9035 187.976 88.9639 187.036C88.0245 186.097 87.279 184.981 86.7705 183.754C86.3381 182.71 86.0859 181.602 86.0195 180.477H86V165ZM113.119 165C114.448 165 115.764 165.261 116.991 165.77C118.219 166.278 119.335 167.024 120.274 167.964C121.214 168.903 121.959 170.019 122.468 171.246C122.9 172.29 123.152 173.398 123.219 174.523H123.237V190C120.936 190 119.071 188.134 119.071 185.833V175.119H119.064C119.064 174.338 118.91 173.565 118.611 172.844C118.313 172.123 117.875 171.467 117.323 170.915C116.771 170.363 116.115 169.925 115.394 169.626C114.672 169.327 113.9 169.173 113.119 169.173C112.338 169.173 111.565 169.327 110.844 169.626C110.122 169.925 109.467 170.363 108.915 170.915C108.363 171.467 107.925 172.122 107.626 172.844C107.327 173.565 107.173 174.338 107.173 175.119H103C103 173.79 103.261 172.474 103.77 171.246C104.278 170.018 105.024 168.904 105.964 167.964C106.903 167.024 108.018 166.278 109.246 165.77C110.474 165.261 111.79 165 113.119 165ZM129 165C131.301 165 133.166 166.866 133.166 169.167V179.881H133.173C133.173 180.662 133.327 181.435 133.626 182.156C133.925 182.877 134.362 183.533 134.914 184.085C135.466 184.637 136.122 185.075 136.844 185.374C137.565 185.673 138.338 185.827 139.118 185.827C139.899 185.827 140.672 185.673 141.394 185.374C142.115 185.075 142.77 184.637 143.322 184.085C143.874 183.533 144.313 182.878 144.611 182.156C144.91 181.435 145.064 180.662 145.064 179.881H149.237C149.237 181.21 148.976 182.526 148.468 183.754C147.959 184.982 147.213 186.096 146.273 187.036C145.334 187.976 144.219 188.722 142.991 189.23C141.764 189.739 140.447 190 139.118 190C137.789 190 136.474 189.739 135.246 189.23C134.018 188.722 132.903 187.976 131.963 187.036C131.023 186.097 130.278 184.981 129.77 183.754C129.337 182.71 129.085 181.602 129.019 180.477H129V165ZM156.118 165C157.447 165 158.763 165.261 159.99 165.77C161.218 166.278 162.334 167.024 163.273 167.964C164.213 168.903 164.958 170.019 165.467 171.246C165.899 172.29 166.151 173.398 166.218 174.523H166.237V190C163.936 190 162.07 188.134 162.07 185.833V175.119H162.063C162.063 174.338 161.909 173.565 161.61 172.844C161.312 172.123 160.874 171.467 160.322 170.915C159.77 170.363 159.114 169.925 158.393 169.626C157.671 169.327 156.899 169.173 156.118 169.173C155.337 169.173 154.564 169.327 153.843 169.626C153.121 169.925 152.466 170.363 151.914 170.915C151.362 171.467 150.924 172.122 150.625 172.844C150.326 173.565 150.172 174.338 150.172 175.119H145.999C145.999 173.79 146.26 172.474 146.769 171.246C147.277 170.018 148.023 168.904 148.963 167.964C149.903 167.024 151.017 166.278 152.245 165.77C153.473 165.261 154.789 165 156.118 165Z" fill="url(#paint0_linear_1511_695)"/>
</g>
<defs>
<linearGradient id="paint0_linear_1511_695" x1="65.5" y1="314.5" x2="65.5" y2="169" gradientUnits="userSpaceOnUse">
<stop stop-color="#EC4899"/>
<stop offset="1" stop-color="#EC4899" stop-opacity="0"/>
</linearGradient>
<clipPath id="clip0_1511_695">
<rect width="164" height="314" fill="white"/>
</clipPath>
</defs>
</svg>
